<svg width="48" height="48" viewBox="0 0 48 48" fill="none" xmlns="http://www.w3.org/2000/svg">
<g clip-path="url(#clip0_5716_46679)">
<circle cx="24" cy="24" r="24" fill="#F15859"/>
<path d="M48.0787 25.8162L42.8501 34.5291L36.9993 24L34.9707 14L48.0787 25.8162Z" fill="#C31011"/>
<path d="M46.6351 36.0188L49.5736 27.4267L44.7447 23.4639L37.1011 21.8528L35.0577 23.374L32.502 19L28.3034 34.0382L31.5069 43.8223L36.2827 44.1098L46.6351 36.0188Z" fill="#C31011"/>
<path d="M24.3888 9.6001C27.4375 9.60013 30.2456 10.6301 32.4845 12.3608C35.8593 14.9697 37.7083 19.069 37.5685 23.3042C38.0803 22.878 38.6135 22.4103 39.1612 21.895C40.7526 20.398 43.256 20.4745 44.753 22.0659C46.25 23.6573 46.1735 26.1607 44.5821 27.6577C41.4084 30.6433 38.5844 32.4399 36.6427 33.4663L36.1485 38.7456L24.3888 41.4243L12.629 38.7456L12.172 33.8774C10.2573 32.9526 7.06809 31.0923 3.4171 27.6577C1.82608 26.1607 1.74944 23.6572 3.2462 22.0659C4.7432 20.4743 7.24756 20.3979 8.83897 21.895C9.68406 22.69 10.4929 23.374 11.2462 23.9614C10.8817 19.4965 12.7439 15.1045 16.2931 12.3608C18.5319 10.6302 21.3401 9.6001 24.3888 9.6001Z" fill="#91C653"/>
<mask id="mask0_5716_46679" style="mask-type:alpha" maskUnits="userSpaceOnUse" x="2" y="9" width="44" height="33">
<path d="M24.3888 9.6001C27.4375 9.60013 30.2456 10.6301 32.4845 12.3608C35.8593 14.9697 37.7083 19.069 37.5685 23.3042C38.0803 22.878 38.6135 22.4103 39.1612 21.895C40.7526 20.398 43.256 20.4745 44.753 22.0659C46.25 23.6573 46.1735 26.1607 44.5821 27.6577C41.4084 30.6433 38.5844 32.4399 36.6427 33.4663L36.1485 38.7456L24.3888 41.4243L12.629 38.7456L12.172 33.8774C10.2573 32.9526 7.06809 31.0923 3.4171 27.6577C1.82608 26.1607 1.74944 23.6572 3.2462 22.0659C4.7432 20.4743 7.24756 20.3979 8.83897 21.895C9.68406 22.69 10.4929 23.374 11.2462 23.9614C10.8817 19.4965 12.7439 15.1045 16.2931 12.3608C18.5319 10.6302 21.3401 9.6001 24.3888 9.6001Z" fill="#7CB777"/>
</mask>
<g mask="url(#mask0_5716_46679)">
<path d="M24 6V48L32.5 46.4444L47.5 23.5L35.5 14L24 6Z" fill="black" fill-opacity="0.1"/>
</g>
<path d="M17.1002 24.1324C16.706 24.1324 16.3867 23.8129 16.3867 23.4188V22.1701C16.3867 21.7759 16.7061 21.4565 17.1002 21.4565C17.4945 21.4565 17.8138 21.776 17.8138 22.1701V23.4188C17.8138 23.8129 17.4944 24.1324 17.1002 24.1324Z" fill="#323333"/>
<path d="M30.9011 24.1324C30.5069 24.1324 30.1875 23.8129 30.1875 23.4188V22.1701C30.1875 21.7759 30.5069 21.4565 30.9011 21.4565C31.2953 21.4565 31.6147 21.776 31.6147 22.1701V23.4188C31.6147 23.8129 31.2953 24.1324 30.9011 24.1324Z" fill="#323333"/>
<path d="M24.0006 24.7988C23.131 24.7988 22.3145 24.4352 21.7604 23.8014C21.5009 23.5047 21.5313 23.0538 21.828 22.7945C22.1248 22.5351 22.5755 22.5654 22.8349 22.8621C23.118 23.186 23.5429 23.3717 24.0006 23.3717C24.4586 23.3717 24.8834 23.186 25.1663 22.8622C25.4259 22.5655 25.8766 22.5352 26.1732 22.7945C26.4699 23.0539 26.5003 23.5047 26.241 23.8014C25.6868 24.4352 24.8703 24.7988 24.0006 24.7988Z" fill="#323333"/>
<path d="M24.0006 9.51614C23.6064 9.51614 23.2871 9.19664 23.2871 8.80261V5.51358C23.2871 5.11955 23.6064 4.80005 24.0006 4.80005C24.3949 4.80005 24.7142 5.11955 24.7142 5.51358V8.80252C24.7142 9.19664 24.3948 9.51614 24.0006 9.51614Z" fill="#FCFCFC"/>
<path d="M17.7674 11.2126C17.5262 11.2126 17.2909 11.0903 17.1567 10.8689L15.4512 8.05682C15.2469 7.71979 15.3543 7.28104 15.6913 7.07667C16.0283 6.87238 16.467 6.97973 16.6715 7.31685L18.377 10.129C18.5813 10.466 18.4739 10.9048 18.1369 11.1091C18.0212 11.1792 17.8935 11.2126 17.7674 11.2126Z" fill="#FCFCFC"/>
<path d="M13.3564 16.2631C13.2652 16.2631 13.1725 16.2455 13.0829 16.2082L10.0455 14.9467C9.68159 14.7955 9.50909 14.378 9.66021 14.014C9.81143 13.6501 10.2287 13.4776 10.593 13.6287L13.6304 14.8902C13.9944 15.0414 14.1669 15.459 14.0157 15.8229C13.9017 16.0974 13.6362 16.2631 13.3564 16.2631Z" fill="#FCFCFC"/>
<path d="M34.6457 16.263C34.366 16.263 34.1005 16.0974 33.9864 15.8229C33.8353 15.459 34.0078 15.0414 34.3717 14.8902L37.4092 13.6287C37.773 13.4776 38.1908 13.65 38.342 14.014C38.4931 14.378 38.3206 14.7955 37.9567 14.9468L34.9192 16.2083C34.8297 16.2454 34.7369 16.263 34.6457 16.263Z" fill="#FCFCFC"/>
<path d="M34.2915 9.41713C34.1154 9.09388 34.0561 8.72001 34.1237 8.35823C34.33 7.2531 33.3624 6.28551 32.2573 6.49176C31.8955 6.55935 31.5215 6.50001 31.1984 6.32404C30.2112 5.78638 28.9918 6.40757 28.8465 7.52235C28.799 7.88723 28.6271 8.22463 28.3598 8.47757C27.5433 9.25035 27.7574 10.6019 28.7728 11.0846C29.1051 11.2426 29.3729 11.5104 29.5308 11.8426C30.0135 12.8579 31.3651 13.072 32.1378 12.2556C32.3909 11.9883 32.7282 11.8164 33.0931 11.7688C34.2078 11.6237 34.8291 10.4044 34.2915 9.41713Z" fill="#FDCC09"/>
<path d="M31.174 10.6141C31.8213 10.6141 32.3461 10.0894 32.3461 9.44208C32.3461 8.79477 31.8213 8.27002 31.174 8.27002C30.5267 8.27002 30.002 8.79477 30.002 9.44208C30.002 10.0894 30.5267 10.6141 31.174 10.6141Z" fill="#F15859"/>
<path d="M24.0006 38.9819L11.0605 41.6608L12.6426 49.7694C12.9861 51.5295 14.5282 52.7998 16.3215 52.7998H31.6796C33.473 52.7998 35.0151 51.5296 35.3586 49.7693L36.9406 41.6607L24.0006 38.9819Z" fill="#70C6D1"/>
<path d="M36.9393 36.3032H11.0592C10.2326 36.3032 9.5625 36.9733 9.5625 37.7999V40.1643C9.5625 40.9909 10.2326 41.661 11.0592 41.661H36.9393C37.7659 41.661 38.436 40.9909 38.436 40.1643V37.7999C38.4359 36.9733 37.7659 36.3032 36.9393 36.3032Z" fill="#FCFCFC"/>
</g>
<defs>
<clipPath id="clip0_5716_46679">
<rect width="48" height="48" rx="24" fill="white"/>
</clipPath>
</defs>
</svg>
