<svg width="56" height="28" viewBox="0 0 56 28" fill="none" xmlns="http://www.w3.org/2000/svg">
<path d="M25.8205 25.8941C25.8198 26.3102 25.9468 26.7172 26.1855 27.0635C26.4242 27.4098 26.7637 27.6798 27.1612 27.8393C27.5587 27.9989 27.9962 28.0408 28.4183 27.9598C28.8404 27.8788 29.2282 27.6785 29.5325 27.3842C29.8368 27.09 30.044 26.715 30.1278 26.3068C30.2116 25.8986 30.1682 25.4756 30.0032 25.0913C29.8382 24.7069 29.559 24.3786 29.2008 24.1478C28.8427 23.917 28.4218 23.7942 27.9915 23.7949C27.7053 23.7912 27.4214 23.8431 27.1563 23.9473C26.8912 24.0515 26.6504 24.206 26.448 24.4016C26.2457 24.5973 26.0859 24.8302 25.9781 25.0865C25.8704 25.3428 25.8168 25.6174 25.8205 25.8941Z" fill="#FCFCFC"/>
<path d="M54.3991 25.1372H32.279C32.337 25.3855 32.3627 25.6397 32.3555 25.8941C32.3537 26.6062 32.1504 27.3043 31.7676 27.9126H54.3991C55.2967 27.9126 55.9995 27.4181 55.9995 26.567C55.9995 25.7158 55.2967 25.1372 54.3991 25.1372Z" fill="#F15859"/>
<path d="M54.7851 17.9642C54.6478 17.5711 54.3553 17.2464 53.9714 17.0611C53.5875 16.8758 53.1434 16.8449 52.736 16.9751L31.6387 23.589C32.0974 24.2692 32.3393 25.0647 32.3345 25.8767C32.3345 26.1256 32.2719 26.4351 32.2719 26.6807L53.7518 19.9524C53.9568 19.8905 54.1468 19.7893 54.3104 19.6549C54.4741 19.5205 54.6081 19.3557 54.7045 19.1702C54.801 18.9847 54.8578 18.7823 54.8716 18.5751C54.8855 18.3679 54.856 18.1601 54.7851 17.9642Z" fill="#FDCC09"/>
<path d="M50.9473 10.3613C50.698 10.0288 50.3242 9.80359 49.9056 9.73382C49.487 9.66406 49.0568 9.75522 48.7068 9.98787L30.7441 22.6001C31.1907 22.9367 31.5633 23.3562 31.8399 23.834C32.1165 24.3118 32.2916 24.8381 32.355 25.3822L50.6412 12.5244C50.812 12.4047 50.956 12.2528 51.0645 12.0777C51.173 11.9027 51.2436 11.7083 51.2722 11.5061C51.3008 11.304 51.2868 11.0983 51.231 10.9015C51.1751 10.7048 51.0786 10.521 50.9473 10.3613Z" fill="#70C6D1"/>
<path d="M44.8809 4.23893C44.7104 4.11675 44.5161 4.02928 44.3096 3.98182C44.1032 3.93435 43.8889 3.92788 43.6798 3.96279C43.4707 3.9977 43.271 4.07326 43.093 4.18491C42.9149 4.29656 42.7621 4.44197 42.6439 4.61235L29.5938 21.9209C30.6387 22.3567 31.481 23.1496 31.9595 24.148L45.2567 6.40544C45.3836 6.24093 45.4748 6.05326 45.5247 5.85376C45.5747 5.65426 45.5823 5.44704 45.5472 5.24461C45.5121 5.04217 45.435 4.84871 45.3205 4.67587C45.206 4.50303 45.0564 4.3544 44.8809 4.23893Z" fill="#91C653"/>
<path d="M36.6234 0.0975142C36.3559 0.0150184 36.0743 -0.0155949 35.7945 0.00743053C35.5148 0.030456 35.2425 0.106667 34.9932 0.231691C34.744 0.356715 34.5228 0.528092 34.3422 0.735989C34.1617 0.943885 34.0253 1.18421 33.941 1.44317L27.0977 21.7357C27.3927 21.6856 27.6924 21.6653 27.9918 21.6752C28.5937 21.662 29.1914 21.7756 29.7435 22.0079C30.2956 22.2403 30.7888 22.5859 31.1891 23.0208L38.0325 2.68118C38.1159 2.42209 38.1455 2.14963 38.1198 1.87942C38.0941 1.60921 38.0134 1.34658 37.8825 1.10656C37.7516 0.866536 37.573 0.653855 37.357 0.480704C37.1409 0.307552 36.8916 0.177335 36.6234 0.0975142Z" fill="#FCFCFC"/>
<path d="M23.6579 25.8941C23.6733 25.1398 23.8699 24.3992 24.232 23.731H2.17447C1.6027 23.737 1.05585 23.9581 0.649905 24.3475C0.243959 24.7369 0.0108484 25.2639 2.53068e-05 25.8167C-0.00135393 26.0921 0.0536569 26.3649 0.161877 26.6196C0.270097 26.8742 0.429384 27.1057 0.63056 27.3005C0.831735 27.4954 1.07081 27.6498 1.334 27.7548C1.5972 27.8599 1.8793 27.9135 2.16403 27.9126H24.2216C23.8473 27.3019 23.6524 26.604 23.6579 25.8941Z" fill="#FCFCFC"/>
</svg>
