<svg width="28" height="28" viewBox="0 0 28 28" fill="none" xmlns="http://www.w3.org/2000/svg">
<path d="M24.5 14C24.5016 15.4726 24.1926 16.9289 23.5933 18.274C22.994 19.619 22.1178 20.8226 21.0219 21.8061C20.363 20.5101 19.3582 19.4218 18.1188 18.6618C16.8795 17.9018 15.4539 17.4997 14 17.5C14.8653 17.5 15.7112 17.2434 16.4306 16.7627C17.1501 16.282 17.7108 15.5987 18.042 14.7993C18.3731 13.9999 18.4597 13.1202 18.2909 12.2715C18.1221 11.4229 17.7054 10.6433 17.0936 10.0314C16.4817 9.41959 15.7022 9.00291 14.8535 8.8341C14.0049 8.66529 13.1252 8.75193 12.3258 9.08307C11.5263 9.4142 10.8431 9.97495 10.3623 10.6944C9.88159 11.4139 9.625 12.2597 9.625 13.125C9.625 14.2854 10.0859 15.3982 10.9064 16.2186C11.7269 17.0391 12.8397 17.5 14 17.5C12.5461 17.4997 11.1206 17.9018 9.88118 18.6618C8.6418 19.4218 7.63701 20.5101 6.97813 21.8061C5.67684 20.6357 4.68879 19.1585 4.10382 17.5089C3.51884 15.8593 3.35551 14.0896 3.62866 12.3608C3.90182 10.632 4.6028 8.99891 5.66787 7.61003C6.73293 6.22115 8.12829 5.12053 9.72705 4.40827C11.3258 3.69602 13.0773 3.39471 14.8221 3.53175C16.567 3.66879 18.2499 4.23984 19.7179 5.19296C21.1859 6.14607 22.3923 7.45103 23.2275 8.98916C24.0627 10.5273 24.5001 12.2498 24.5 14Z" fill="#70C6D1"/>
<path d="M10.5282 4.04686C10.4713 3.82281 10.5055 3.58536 10.6231 3.38638C10.7407 3.18739 10.9323 3.04303 11.156 2.98483C13.0213 2.50375 14.9782 2.50375 16.8435 2.98483C17.0501 3.03773 17.2303 3.16427 17.3502 3.34066C17.4701 3.51705 17.5214 3.73114 17.4945 3.94272C17.4676 4.15429 17.3644 4.34876 17.2043 4.48959C17.0441 4.63042 16.838 4.70791 16.6248 4.70749C16.551 4.7071 16.4775 4.69755 16.406 4.67905C14.8277 4.27154 13.1718 4.27154 11.5935 4.67905C11.4821 4.70762 11.366 4.71392 11.2521 4.6976C11.1382 4.68128 11.0287 4.64265 10.9297 4.58393C10.8308 4.52521 10.7444 4.44754 10.6755 4.35539C10.6066 4.26323 10.5565 4.15839 10.5282 4.04686ZM3.64742 12.0312C3.75816 12.062 3.87388 12.0706 3.98796 12.0567C4.10204 12.0427 4.21225 12.0064 4.3123 11.9498C4.41234 11.8932 4.50026 11.8175 4.57104 11.7269C4.64181 11.6364 4.69405 11.5328 4.72476 11.422C5.16071 9.8518 5.98873 8.41819 7.13101 7.25593C7.28326 7.08851 7.36473 6.86862 7.35832 6.64242C7.3519 6.41622 7.2581 6.20131 7.09661 6.04279C6.93512 5.88427 6.7185 5.79448 6.49222 5.79227C6.26594 5.79006 6.0476 5.8756 5.88305 6.03093C4.53387 7.40445 3.5554 9.09795 3.0393 10.9528C3.00835 11.0635 2.99954 11.1793 3.01336 11.2934C3.02718 11.4076 3.06336 11.5179 3.11984 11.6181C3.17632 11.7182 3.25198 11.8063 3.34251 11.8772C3.43304 11.9481 3.53665 12.0004 3.64742 12.0312ZM16.406 23.3209C14.8277 23.7284 13.1718 23.7284 11.5935 23.3209C11.3702 23.2669 11.1346 23.3029 10.9376 23.421C10.7406 23.5392 10.598 23.7302 10.5405 23.9526C10.4831 24.1751 10.5154 24.4112 10.6306 24.61C10.7457 24.8088 10.9345 24.9543 11.156 25.0151C13.0213 25.4962 14.9782 25.4962 16.8435 25.0151C17.0651 24.9543 17.2538 24.8088 17.3689 24.61C17.4841 24.4112 17.5165 24.1751 17.459 23.9526C17.4016 23.7302 17.2589 23.5392 17.0619 23.421C16.8649 23.3029 16.6293 23.2669 16.406 23.3209ZM23.2748 11.4242C23.3368 11.6479 23.4852 11.8377 23.6873 11.9519C23.8893 12.0662 24.1285 12.0955 24.3521 12.0334C24.5758 11.9713 24.7656 11.823 24.8798 11.6209C24.9941 11.4189 25.0234 11.1797 24.9613 10.9561C24.4452 9.10123 23.4668 7.40773 22.1176 6.03421C22.0378 5.94904 21.9419 5.88068 21.8353 5.83315C21.7287 5.78562 21.6138 5.75988 21.4971 5.75745C21.3805 5.75501 21.2645 5.77594 21.156 5.81898C21.0476 5.86202 20.9489 5.92632 20.8656 6.00809C20.7824 6.08986 20.7164 6.18745 20.6714 6.29512C20.6265 6.40279 20.6035 6.51836 20.6039 6.63503C20.6042 6.75171 20.6279 6.86713 20.6736 6.97451C20.7192 7.08189 20.7859 7.17906 20.8696 7.2603C22.0098 8.42295 22.8369 9.85547 23.2737 11.4242H23.2748ZM24.9635 17.045C24.3846 19.132 23.2202 21.0096 21.6079 22.4558C21.5082 22.5458 21.3891 22.6116 21.2598 22.6482C21.1305 22.6848 20.9946 22.6911 20.8625 22.6666C20.7304 22.6422 20.6057 22.5877 20.498 22.5073C20.3904 22.4269 20.3027 22.3228 20.2418 22.2031C19.6567 21.0503 18.7637 20.082 17.6619 19.4056C16.5602 18.7293 15.2926 18.3712 13.9998 18.3712C12.7069 18.3712 11.4394 18.7293 10.3376 19.4056C9.2358 20.082 8.34285 21.0503 7.75773 22.2031C7.69675 22.3226 7.6091 22.4265 7.50157 22.5067C7.39404 22.5869 7.2695 22.6414 7.13758 22.6658C7.08492 22.6757 7.03147 22.6808 6.97789 22.6811C6.76184 22.6811 6.55342 22.6013 6.39273 22.4569C4.78037 21.0099 3.61595 19.1316 3.03711 17.0439C2.97518 16.8202 3.00463 16.5811 3.11898 16.3792C3.23333 16.1773 3.42322 16.029 3.64687 15.9671C3.87053 15.9052 4.10962 15.9346 4.31156 16.049C4.5135 16.1633 4.66174 16.3532 4.72367 16.5769C5.11507 17.9909 5.82606 19.2961 6.8018 20.3919C7.77808 18.9758 9.15206 17.8808 10.7502 17.2451C9.89266 16.5701 9.2668 15.6445 8.9597 14.5972C8.6526 13.5499 8.67953 12.4329 9.03674 11.4016C9.39395 10.3703 10.0637 9.47602 10.9528 8.84305C11.8419 8.21009 12.9062 7.86995 13.9976 7.86995C15.089 7.86995 16.1532 8.21009 17.0424 8.84305C17.9315 9.47602 18.6012 10.3703 18.9584 11.4016C19.3156 12.4329 19.3426 13.5499 19.0355 14.5972C18.7284 15.6445 18.1025 16.5701 17.2449 17.2451C18.8431 17.8808 20.2171 18.9758 21.1934 20.3919C22.1691 19.2961 22.8801 17.9909 23.2715 16.5769C23.3336 16.3532 23.4819 16.1634 23.684 16.0491C23.886 15.9349 24.1252 15.9056 24.3488 15.9676C24.5725 16.0297 24.7623 16.1781 24.8766 16.3801C24.9908 16.5822 25.0201 16.8213 24.958 17.045H24.9635ZM13.9998 16.625C14.692 16.625 15.3687 16.4197 15.9443 16.0351C16.5198 15.6505 16.9684 15.1039 17.2333 14.4644C17.4982 13.8248 17.5676 13.1211 17.4325 12.4422C17.2975 11.7632 16.9641 11.1396 16.4746 10.6501C15.9852 10.1606 15.3615 9.82729 14.6826 9.69224C14.0036 9.55719 13.2999 9.6265 12.6604 9.89141C12.0208 10.1563 11.4742 10.6049 11.0896 11.1805C10.705 11.7561 10.4998 12.4328 10.4998 13.125C10.4998 14.0532 10.8685 14.9435 11.5249 15.5999C12.1813 16.2562 13.0715 16.625 13.9998 16.625Z" fill="#323333"/>
</svg>
