<svg width="28" height="28" viewBox="0 0 28 28" fill="none" xmlns="http://www.w3.org/2000/svg">
<path d="M22.7346 13.473L24.5699 11.1761C24.3224 10.2456 23.952 9.35214 23.4685 8.51939L20.5482 8.19127C20.3149 7.92843 20.0662 7.67971 19.8034 7.44643L19.4753 4.52502C18.6416 4.04446 17.7479 3.67666 16.8174 3.43127L14.5206 5.26549C14.1694 5.24471 13.8173 5.24471 13.4662 5.26549L11.1693 3.43018C10.2418 3.67845 9.35135 4.04883 8.52135 4.53158L8.19322 7.45189C7.93039 7.68518 7.68167 7.9339 7.44838 8.19674L4.52697 8.52486C4.04641 9.35851 3.67862 10.2523 3.43322 11.1827L5.26744 13.4796C5.24666 13.8307 5.24666 14.1828 5.26744 14.5339L3.43213 16.8308C3.67968 17.7613 4.05007 18.6548 4.53354 19.4875L7.45385 19.8156C7.68714 20.0785 7.93586 20.3272 8.19869 20.5605L8.52682 23.4819C9.36047 23.9625 10.2542 24.3302 11.1846 24.5756L13.4815 22.7414C13.8327 22.7622 14.1847 22.7622 14.5359 22.7414L16.8328 24.5767C17.7633 24.3292 18.6567 23.9588 19.4895 23.4753L19.8176 20.555C20.0804 20.3217 20.3292 20.073 20.5624 19.8102L23.4838 19.482C23.9644 18.6484 24.3322 17.7547 24.5776 16.8242L22.7434 14.5274C22.7612 14.176 22.7583 13.824 22.7346 13.473ZM13.9999 18.3752C13.1346 18.3752 12.2888 18.1186 11.5693 17.6379C10.8499 17.1571 10.2891 16.4738 9.95797 15.6744C9.62683 14.875 9.5402 13.9953 9.70901 13.1467C9.87782 12.298 10.2945 11.5184 10.9063 10.9066C11.5182 10.2947 12.2978 9.87805 13.1464 9.70924C13.9951 9.54043 14.8748 9.62707 15.6742 9.9582C16.4736 10.2893 17.1569 10.8501 17.6376 11.5696C18.1184 12.289 18.3749 13.1349 18.3749 14.0002C18.3749 15.1605 17.914 16.2733 17.0935 17.0938C16.2731 17.9142 15.1603 18.3752 13.9999 18.3752Z" fill="#70C6D1"/>
<path d="M13.9998 8.74981C12.9615 8.74981 11.9464 9.05771 11.0831 9.63459C10.2197 10.2115 9.5468 11.0314 9.14944 11.9907C8.75208 12.95 8.64811 14.0056 8.85068 15.024C9.05326 16.0424 9.55327 16.9779 10.2875 17.7121C11.0217 18.4463 11.9572 18.9464 12.9756 19.1489C13.994 19.3515 15.0496 19.2475 16.0089 18.8502C16.9682 18.4528 17.7881 17.7799 18.365 16.9165C18.9419 16.0532 19.2498 15.0382 19.2498 13.9998C19.2484 12.6079 18.6948 11.2733 17.7105 10.2891C16.7263 9.30484 15.3917 8.75125 13.9998 8.74981ZM13.9998 17.4998C13.3076 17.4998 12.6309 17.2945 12.0553 16.9099C11.4797 16.5254 11.0311 15.9787 10.7662 15.3392C10.5013 14.6997 10.432 13.9959 10.5671 13.317C10.7021 12.6381 11.0354 12.0144 11.5249 11.5249C12.0144 11.0354 12.6381 10.7021 13.317 10.5671C13.9959 10.432 14.6997 10.5013 15.3392 10.7662C15.9787 11.0311 16.5254 11.4797 16.9099 12.0553C17.2945 12.6309 17.4998 13.3076 17.4998 13.9998C17.4998 14.9281 17.1311 15.8183 16.4747 16.4747C15.8183 17.1311 14.9281 17.4998 13.9998 17.4998ZM23.6248 14.2361C23.6292 14.0786 23.6292 13.9211 23.6248 13.7636L25.2567 11.7248C25.3422 11.6178 25.4015 11.4921 25.4296 11.358C25.4577 11.2239 25.4539 11.085 25.4186 10.9526C25.1506 9.94719 24.7504 8.98174 24.2286 8.08152C24.1602 7.96375 24.0652 7.86356 23.9513 7.78894C23.8374 7.71431 23.7076 7.66731 23.5723 7.65168L20.9779 7.36293C20.87 7.24918 20.7606 7.13981 20.6498 7.03481L20.3436 4.43387C20.3278 4.29848 20.2806 4.16864 20.2058 4.0547C20.131 3.94076 20.0306 3.84588 19.9126 3.77762C19.0125 3.25617 18.047 2.85673 17.0415 2.58981C16.9091 2.55443 16.7703 2.55065 16.6362 2.57877C16.502 2.60689 16.3764 2.66611 16.2693 2.75168L14.2361 4.37481C14.0786 4.37481 13.9211 4.37481 13.7636 4.37481L11.7248 2.74621C11.6178 2.66065 11.4921 2.60142 11.358 2.5733C11.2239 2.54519 11.085 2.54897 10.9526 2.58434C9.94719 2.85234 8.98174 3.25249 8.08152 3.77434C7.96375 3.84272 7.86356 3.93766 7.78894 4.05159C7.71431 4.16552 7.66731 4.29529 7.65168 4.43059L7.36293 7.02934C7.24918 7.13798 7.13981 7.24736 7.03481 7.35746L4.43387 7.65606C4.29848 7.67181 4.16864 7.71897 4.0547 7.79379C3.94076 7.86861 3.84588 7.96901 3.77762 8.08699C3.25628 8.98733 2.8565 9.95276 2.58871 10.9581C2.55349 11.0906 2.54989 11.2295 2.57819 11.3636C2.6065 11.4977 2.66593 11.6233 2.75168 11.7303L4.37481 13.7636C4.37481 13.9211 4.37481 14.0786 4.37481 14.2361L2.74621 16.2748C2.66065 16.3819 2.60142 16.5075 2.5733 16.6416C2.54519 16.7757 2.54897 16.9146 2.58434 17.047C2.85234 18.0524 3.25249 19.0179 3.77434 19.9181C3.84272 20.0359 3.93766 20.1361 4.05159 20.2107C4.16552 20.2853 4.29529 20.3323 4.43059 20.3479L7.02496 20.6367C7.13361 20.7504 7.24298 20.8598 7.35309 20.9648L7.65606 23.5657C7.67181 23.7011 7.71897 23.831 7.79379 23.9449C7.86861 24.0588 7.96901 24.1537 8.08699 24.222C8.98733 24.7433 9.95276 25.1431 10.9581 25.4109C11.0906 25.4461 11.2295 25.4497 11.3636 25.4214C11.4977 25.3931 11.6233 25.3337 11.7303 25.2479L13.7636 23.6248C13.9211 23.6292 14.0786 23.6292 14.2361 23.6248L16.2748 25.2567C16.3819 25.3422 16.5075 25.4015 16.6416 25.4296C16.7757 25.4577 16.9146 25.4539 17.047 25.4186C18.0526 25.151 19.0181 24.7509 19.9181 24.2286C20.0359 24.1602 20.1361 24.0652 20.2107 23.9513C20.2853 23.8374 20.3323 23.7076 20.3479 23.5723L20.6367 20.9779C20.7504 20.87 20.8598 20.7606 20.9648 20.6498L23.5657 20.3436C23.7011 20.3278 23.831 20.2806 23.9449 20.2058C24.0588 20.131 24.1537 20.0306 24.222 19.9126C24.7433 19.0123 25.1431 18.0469 25.4109 17.0415C25.4461 16.909 25.4497 16.7701 25.4214 16.636C25.3931 16.5019 25.3337 16.3763 25.2479 16.2693L23.6248 14.2361ZM21.8639 13.5251C21.8825 13.8413 21.8825 14.1583 21.8639 14.4745C21.8508 14.691 21.9187 14.9046 22.0542 15.0739L23.6062 17.0131C23.4281 17.5791 23.2001 18.1281 22.9248 18.6537L20.4529 18.9337C20.2377 18.9576 20.0389 19.0605 19.8951 19.2225C19.6846 19.4592 19.4603 19.6835 19.2236 19.894C19.0616 20.0378 18.9587 20.2366 18.9348 20.4518L18.6603 22.9215C18.1347 23.1969 17.5857 23.425 17.0196 23.6029L15.0793 22.0509C14.9241 21.9268 14.7312 21.8593 14.5325 21.8595H14.48C14.1638 21.8781 13.8468 21.8781 13.5306 21.8595C13.3142 21.8471 13.1008 21.9148 12.9312 22.0498L10.9865 23.6029C10.4205 23.4248 9.87151 23.1968 9.3459 22.9215L9.0659 20.4529C9.042 20.2377 8.93912 20.0389 8.77715 19.8951C8.54036 19.6846 8.31612 19.4603 8.10559 19.2236C7.9618 19.0616 7.76304 18.9587 7.54777 18.9348L5.07809 18.6592C4.80267 18.1336 4.57463 17.5846 4.39668 17.0186L5.94871 15.0782C6.08423 14.9089 6.15206 14.6953 6.13902 14.4789C6.12043 14.1627 6.12043 13.8457 6.13902 13.5295C6.15206 13.313 6.08423 13.0994 5.94871 12.9301L4.39668 10.9865C4.57477 10.4205 4.8028 9.87151 5.07809 9.3459L7.54668 9.0659C7.76195 9.042 7.9607 8.93912 8.10449 8.77715C8.31503 8.54036 8.53927 8.31612 8.77606 8.10559C8.93867 7.9617 9.04198 7.76249 9.0659 7.54668L9.34043 5.07809C9.86598 4.80267 10.415 4.57463 10.9811 4.39668L12.9214 5.94871C13.0907 6.08423 13.3043 6.15206 13.5207 6.13902C13.8369 6.12043 14.1539 6.12043 14.4701 6.13902C14.6865 6.15143 14.8999 6.08368 15.0695 5.94871L17.0131 4.39668C17.5791 4.57477 18.1281 4.8028 18.6537 5.07809L18.9337 7.54668C18.9576 7.76195 19.0605 7.9607 19.2225 8.10449C19.4592 8.31503 19.6835 8.53927 19.894 8.77606C20.0378 8.93803 20.2366 9.04091 20.4518 9.06481L22.9215 9.33934C23.1969 9.86489 23.425 10.4139 23.6029 10.98L22.0509 12.9203C21.9141 13.091 21.8462 13.3068 21.8606 13.5251H21.8639Z" fill="#323333"/>
</svg>
