<svg width="111" height="69" viewBox="0 0 111 69" fill="none" xmlns="http://www.w3.org/2000/svg">
<g opacity="0.3">
<g clip-path="url(#clip0_5716_46658)">
<path d="M0 0H111V59C111 64.5228 106.523 69 101 69H10C4.47715 69 0 64.5229 0 59V0Z" fill="#FCFCFC"/>
<path d="M-55.7824 125.278C-56.7051 124.629 -57.7458 124.17 -58.845 123.926C-59.9442 123.682 -61.0804 123.658 -62.1885 123.856C-63.2966 124.054 -64.355 124.47 -65.3029 125.08C-66.2509 125.69 -67.0699 126.482 -67.7131 127.411C-68.1501 128.041 -68.7063 128.579 -69.35 128.993C-69.9937 129.407 -70.7122 129.689 -71.4645 129.823C-72.2168 129.958 -72.9881 129.942 -73.7344 129.777C-74.4807 129.611 -75.1873 129.299 -75.8139 128.859L-77.2805 127.772C-77.907 127.333 -78.4414 126.774 -78.853 126.126C-79.2647 125.479 -79.5455 124.757 -79.6794 124.001C-79.8134 123.245 -79.7978 122.469 -79.6336 121.719C-79.4695 120.969 -79.1599 120.259 -78.7227 119.63L-21.0262 36.4554C-20.09 35.1113 -18.6622 34.1953 -17.0555 33.9081C-15.4488 33.6208 -13.7942 33.9857 -12.4539 34.9228C-11.114 35.8638 -10.2003 37.3014 -9.91367 38.9195C-9.62708 40.5375 -9.99107 42.2035 -10.9256 43.5511L-26.1486 65.5244C-26.423 65.9185 -26.6174 66.3633 -26.7206 66.8332C-26.8237 67.3031 -26.8336 67.7889 -26.7496 68.2627C-26.6657 68.7365 -26.4896 69.1891 -26.2315 69.5944C-25.9733 69.9997 -25.6382 70.3498 -25.2452 70.6246C-24.8533 70.9008 -24.411 71.0964 -23.9437 71.2004C-23.4765 71.3043 -22.9935 71.3144 -22.5224 71.2302C-22.0514 71.146 -21.6015 70.969 -21.1986 70.7096C-20.7958 70.4501 -20.4478 70.1131 -20.1747 69.718L37.0067 -12.7514C37.4059 -13.3275 37.9141 -13.8189 38.5023 -14.1972C39.0905 -14.5756 39.7472 -14.8337 40.4347 -14.9566C41.1223 -15.0795 41.8272 -15.0649 42.5092 -14.9136C43.1913 -14.7623 43.8371 -14.4773 44.4096 -14.0749C44.9829 -13.6727 45.4718 -13.1608 45.8484 -12.5686C46.2251 -11.9763 46.482 -11.3153 46.6046 -10.6232C46.7271 -9.93115 46.713 -9.22165 46.5629 -8.53522C46.4127 -7.84879 46.1296 -7.19889 45.7296 -6.62266L-13.1005 78.1781C-14.1966 79.7661 -14.6226 81.7263 -14.2854 83.63C-13.9483 85.5337 -12.8752 87.2258 -11.3012 88.3365C-9.72711 89.4471 -8.6542 91.1393 -8.31701 93.0429C-7.97982 94.9466 -8.40579 96.9068 -9.50186 98.4948L-59.4339 170.469C-59.961 171.231 -60.6322 171.88 -61.4091 172.38C-62.1859 172.879 -63.0532 173.22 -63.9613 173.383C-64.8694 173.545 -65.8005 173.526 -66.7013 173.326C-67.6021 173.126 -68.455 172.749 -69.2111 172.217C-70.7348 171.145 -71.7736 169.509 -72.0998 167.667C-72.4259 165.826 -72.0128 163.93 -70.9509 162.395L-53.6274 137.236C-52.3399 135.362 -51.8438 133.052 -52.2478 130.81C-52.6517 128.568 -53.9228 126.579 -55.7824 125.278Z" fill="#70C6D1"/>
<path d="M85.7233 -8.12065C84.9137 -8.69003 84.0004 -9.09329 83.0359 -9.30738C82.0713 -9.52148 81.0743 -9.5422 80.1019 -9.36835C79.1295 -9.1945 78.2008 -8.82948 77.3689 -8.29421C76.5371 -7.75893 75.8184 -7.06391 75.254 -6.24888C74.8705 -5.6958 74.3824 -5.22418 73.8176 -4.86096C73.2527 -4.49774 72.6222 -4.25002 71.9621 -4.132C71.302 -4.01397 70.6251 -4.02795 69.9702 -4.1731C69.3153 -4.31825 68.6953 -4.59173 68.1454 -4.97795L66.8585 -5.93204C66.3087 -6.31754 65.8398 -6.80823 65.4786 -7.37606C65.1174 -7.94388 64.871 -8.5777 64.7534 -9.24128C64.6359 -9.90485 64.6495 -10.5852 64.7936 -11.2433C64.9376 -11.9015 65.2093 -12.5246 65.593 -13.077L116.222 -86.0634C117.044 -87.2429 118.297 -88.0467 119.707 -88.2987C121.116 -88.5508 122.568 -88.2306 123.745 -87.4083C124.92 -86.5825 125.722 -85.321 125.974 -83.9012C126.225 -82.4814 125.906 -81.0194 125.086 -79.8368L111.727 -60.5551C111.486 -60.2092 111.316 -59.8189 111.225 -59.4066C111.135 -58.9942 111.126 -58.568 111.2 -58.1522C111.274 -57.7364 111.428 -57.3393 111.655 -56.9836C111.881 -56.6279 112.175 -56.3207 112.52 -56.0796C112.864 -55.8372 113.252 -55.6655 113.662 -55.5743C114.072 -55.4831 114.496 -55.4743 114.909 -55.5482C115.323 -55.6221 115.717 -55.7773 116.071 -56.005C116.424 -56.2327 116.73 -56.5284 116.969 -56.8751L167.147 -129.243C167.497 -129.748 167.943 -130.18 168.459 -130.512C168.975 -130.844 169.552 -131.07 170.155 -131.178C170.758 -131.286 171.377 -131.273 171.975 -131.14C172.574 -131.008 173.141 -130.757 173.643 -130.404C174.146 -130.051 174.575 -129.602 174.906 -129.083C175.236 -128.563 175.461 -127.983 175.569 -127.375C175.677 -126.768 175.664 -126.146 175.532 -125.543C175.401 -124.941 175.152 -124.371 174.801 -123.865L123.177 -49.4513C122.215 -48.0578 121.841 -46.3377 122.137 -44.6672C122.433 -42.9967 123.375 -41.5118 124.756 -40.5372C126.137 -39.5626 127.079 -38.0777 127.375 -36.4072C127.671 -34.7367 127.297 -33.0167 126.335 -31.6232L82.5191 31.5354C82.0565 32.2033 81.4675 32.7728 80.7858 33.2115C80.1041 33.6501 79.3431 33.9492 78.5462 34.0917C77.7494 34.2342 76.9323 34.2172 76.1418 34.0418C75.3514 33.8663 74.603 33.5359 73.9395 33.0693C72.6024 32.1282 71.6908 30.6922 71.4046 29.0764C71.1184 27.4606 71.481 25.7969 72.4128 24.4501L87.6143 2.37264C88.7441 0.72858 89.1795 -1.29922 88.825 -3.26623C88.4705 -5.23324 87.3551 -6.97896 85.7233 -8.12065Z" fill="#F15859"/>
<ellipse cx="10.0804" cy="10.1611" rx="10.0804" ry="10.1611" transform="matrix(0.996272 0.086273 -0.0848985 0.99639 26.4941 39.4014)" fill="#91C653"/>
</g>
</g>
<defs>
<clipPath id="clip0_5716_46658">
<path d="M0 0H111V59C111 64.5228 106.523 69 101 69H10C4.47715 69 0 64.5229 0 59V0Z" fill="white"/>
</clipPath>
</defs>
</svg>
