<svg width="30" height="30" viewBox="0 0 30 30" fill="none" xmlns="http://www.w3.org/2000/svg">
<path d="M27.5 15C27.5 8.1 21.9 2.5 15 2.5C8.1 2.5 2.5 8.1 2.5 15C2.5 21.9 8.1 27.5 15 27.5" stroke="#FCFCFC" stroke-width="2" stroke-linecap="round" stroke-linejoin="round"/>
<path d="M10 3.75H11.25C8.8125 11.05 8.8125 18.95 11.25 26.25H10" stroke="#FCFCFC" stroke-width="2" stroke-linecap="round" stroke-linejoin="round"/>
<path d="M18.75 3.75C19.9625 7.4 20.575 11.2 20.575 15" stroke="#FCFCFC" stroke-width="2" stroke-linecap="round" stroke-linejoin="round"/>
<path d="M3.75 20V18.75C7.4 19.9625 11.2 20.575 15 20.575" stroke="#FCFCFC" stroke-width="2" stroke-linecap="round" stroke-linejoin="round"/>
<path d="M3.75 11.25C11.05 8.8125 18.95 8.8125 26.25 11.25" stroke="#FCFCFC" stroke-width="2" stroke-linecap="round" stroke-linejoin="round"/>
<path d="M24.0126 19.675L19.5875 24.1001C19.4125 24.2751 19.25 24.6 19.2125 24.8375L18.975 26.525C18.8875 27.1375 19.3126 27.5625 19.9251 27.475L21.6125 27.2375C21.85 27.2 22.1876 27.0375 22.3501 26.8625L26.775 22.4376C27.5375 21.6751 27.9 20.7875 26.775 19.6625C25.6625 18.55 24.7751 18.9125 24.0126 19.675Z" stroke="#FCFCFC" stroke-width="1.5" stroke-miterlimit="10" stroke-linecap="round" stroke-linejoin="round"/>
<path d="M23.375 20.3125C23.75 21.6625 24.8 22.7125 26.15 23.0875" stroke="#FCFCFC" stroke-width="1.5" stroke-miterlimit="10" stroke-linecap="round" stroke-linejoin="round"/>
</svg>
