<svg width="28" height="28" viewBox="0 0 28 28" fill="none" xmlns="http://www.w3.org/2000/svg">
<path opacity="0.2" d="M7.875 8.75V22.75C7.875 22.9821 7.96719 23.2046 8.13128 23.3687C8.29537 23.5328 8.51794 23.625 8.75 23.625H22.75C22.9821 23.625 23.2046 23.5328 23.3687 23.3687C23.5328 23.2046 23.625 22.9821 23.625 22.75V8.75C23.625 8.51794 23.5328 8.29538 23.3687 8.13128C23.2046 7.96719 22.9821 7.875 22.75 7.875H8.75C8.51794 7.875 8.29537 7.96719 8.13128 8.13128C7.96719 8.29538 7.875 8.51794 7.875 8.75Z" fill="#F15859"/>
<path d="M3.5 11.375C3.5 11.6071 3.59219 11.8296 3.75628 11.9937C3.92038 12.1578 4.14293 12.25 4.375 12.25C4.60707 12.25 4.82962 12.1578 4.99372 11.9937C5.15781 11.8296 5.25 11.6071 5.25 11.375V6.48812L12.5048 13.7441C12.669 13.9082 12.8917 14.0005 13.1239 14.0005C13.3561 14.0005 13.5788 13.9082 13.743 13.7441C13.9072 13.5799 13.9994 13.3572 13.9994 13.125C13.9994 12.8928 13.9072 12.6701 13.743 12.5059L6.48812 5.25H11.375C11.6071 5.25 11.8296 5.15781 11.9937 4.99372C12.1578 4.82962 12.25 4.60706 12.25 4.375C12.25 4.14294 12.1578 3.92038 11.9937 3.75628C11.8296 3.59219 11.6071 3.5 11.375 3.5H4.375C4.14293 3.5 3.92038 3.59219 3.75628 3.75628C3.59219 3.92038 3.5 4.14294 3.5 4.375V11.375ZM7.875 14C8.10707 14 8.32962 14.0922 8.49372 14.2563C8.65781 14.4204 8.75 14.6429 8.75 14.875V22.75H22.75V8.75H14.875C14.6429 8.75 14.4204 8.65781 14.2563 8.49372C14.0922 8.32962 14 8.10706 14 7.875C14 7.64294 14.0922 7.42038 14.2563 7.25628C14.4204 7.09219 14.6429 7 14.875 7H22.75C23.2141 7 23.6592 7.18437 23.9874 7.51256C24.3156 7.84075 24.5 8.28587 24.5 8.75V22.75C24.5 23.2141 24.3156 23.6592 23.9874 23.9874C23.6592 24.3156 23.2141 24.5 22.75 24.5H8.75C8.28587 24.5 7.84075 24.3156 7.51256 23.9874C7.18438 23.6592 7 23.2141 7 22.75V14.875C7 14.6429 7.09219 14.4204 7.25628 14.2563C7.42038 14.0922 7.64293 14 7.875 14Z" fill="#F15859"/>
</svg>
