<svg width="28" height="28" viewBox="0 0 28 28" fill="none" xmlns="http://www.w3.org/2000/svg">
<path d="M23.625 12.7629V23.625H16.625V16.625H11.375V23.625H4.375V12.7629L13.3809 3.75589C13.4622 3.67454 13.5587 3.61 13.6649 3.56597C13.7712 3.52193 13.885 3.49927 14 3.49927C14.115 3.49927 14.2288 3.52193 14.3351 3.56597C14.4413 3.61 14.5378 3.67454 14.6191 3.75589L23.625 12.7629Z" fill="#70C6D1"/>
<path d="M26.25 22.75H24.5V14.875L24.7559 15.131C24.9204 15.2952 25.1434 15.3873 25.3758 15.3871C25.6082 15.3869 25.831 15.2944 25.9952 15.1299C26.1593 14.9654 26.2515 14.7424 26.2513 14.51C26.2511 14.2776 26.1585 14.0548 25.9941 13.8907L15.237 3.13691C14.9089 2.80897 14.4639 2.62476 14 2.62476C13.5361 2.62476 13.0911 2.80897 12.763 3.13691L2.00594 13.8907C1.8419 14.0548 1.7498 14.2775 1.7499 14.5096C1.75 14.7417 1.8423 14.9642 2.00648 15.1282C2.17067 15.2923 2.3933 15.3844 2.62539 15.3843C2.85748 15.3842 3.08002 15.2919 3.24406 15.1277L3.5 14.875V22.75H1.75C1.51794 22.75 1.29538 22.8422 1.13128 23.0063C0.967187 23.1704 0.875 23.393 0.875 23.625C0.875 23.8571 0.967187 24.0797 1.13128 24.2438C1.29538 24.4079 1.51794 24.5 1.75 24.5H26.25C26.4821 24.5 26.7046 24.4079 26.8687 24.2438C27.0328 24.0797 27.125 23.8571 27.125 23.625C27.125 23.393 27.0328 23.1704 26.8687 23.0063C26.7046 22.8422 26.4821 22.75 26.25 22.75ZM5.25 13.125L14 4.37504L22.75 13.125V22.75H17.5V16.625C17.5 16.393 17.4078 16.1704 17.2437 16.0063C17.0796 15.8422 16.8571 15.75 16.625 15.75H11.375C11.1429 15.75 10.9204 15.8422 10.7563 16.0063C10.5922 16.1704 10.5 16.393 10.5 16.625V22.75H5.25V13.125ZM15.75 22.75H12.25V17.5H15.75V22.75Z" fill="#323333"/>
</svg>
