<svg id="Layer_1" data-name="Layer 1" xmlns="http://www.w3.org/2000/svg" viewBox="0 0 931 226"><title>Automat</title><circle cx="278.92" cy="140" r="58.33" style="fill:#fff;fill-opacity:0.5;stroke:#404041;stroke-miterlimit:10;stroke-width:2px"/><path d="M276.69,146.37l.14-4.14a9.88,9.88,0,0,1-6.9,3.22,8.09,8.09,0,0,1-6.69-3.08q-2.46-3.08-2.46-8.6a13.63,13.63,0,0,1,1.33-6.17,10.21,10.21,0,0,1,3.57-4.11,8.61,8.61,0,0,1,4.8-1.45,8,8,0,0,1,3.34.67,13,13,0,0,1,3.06,2H277l.32-2.12H280v31.88h-3.32Zm-3-4.55a12.17,12.17,0,0,0,3-2.39v-12.1a10.48,10.48,0,0,0-2.85-1.86,7.23,7.23,0,0,0-2.85-.58,5.58,5.58,0,0,0-3.43,1.15,8,8,0,0,0-2.44,3.17,11.28,11.28,0,0,0-.89,4.56,10.94,10.94,0,0,0,1.68,6.48,5.49,5.49,0,0,0,4.76,2.35A6.39,6.39,0,0,0,273.73,141.82Z" style="fill:#404041"/><path d="M287,154.58a14.79,14.79,0,0,1-1.64-7.63q0-4.94,1.64-7.56a5.31,5.31,0,0,1,9.18,0q1.64,2.63,1.64,7.56a14.79,14.79,0,0,1-1.64,7.63,5.26,5.26,0,0,1-9.18,0Zm7.55-1.26a14.75,14.75,0,0,0,1.07-6.37,14.33,14.33,0,0,0-1.07-6.31,3.16,3.16,0,0,0-5.92,0,14.33,14.33,0,0,0-1.07,6.31,14.75,14.75,0,0,0,1.07,6.37,3.13,3.13,0,0,0,5.92,0Z" style="fill:#404041"/><line x1="181.92" y1="45.84" x2="199.01" y2="74.1" style="fill:none;stroke:#6fa8a5;stroke-linecap:round;stroke-miterlimit:10;stroke-width:4px"/><polygon points="186.95 77.29 207.92 88.83 207.44 64.91 186.95 77.29" style="fill:#6fa8a5"/><circle cx="631.58" cy="139" r="58.33" style="fill:#fff;stroke:#404041;stroke-miterlimit:10;stroke-width:2px"/><path d="M630,145.37l.13-4.14a9.86,9.86,0,0,1-6.9,3.22,8.09,8.09,0,0,1-6.69-3.08q-2.46-3.08-2.46-8.6a13.63,13.63,0,0,1,1.33-6.17,10.21,10.21,0,0,1,3.57-4.11,8.64,8.64,0,0,1,4.81-1.45,8,8,0,0,1,3.33.67,12.58,12.58,0,0,1,3.06,2h.14l.32-2.12h2.67v31.88H630Zm-3-4.55a12.39,12.39,0,0,0,3-2.39v-12.1a10.67,10.67,0,0,0-2.86-1.86,7.23,7.23,0,0,0-2.85-.58,5.53,5.53,0,0,0-3.42,1.15,7.87,7.87,0,0,0-2.44,3.17,11.11,11.11,0,0,0-.9,4.56,10.94,10.94,0,0,0,1.68,6.48A5.49,5.49,0,0,0,624,141.6,6.39,6.39,0,0,0,627,140.82Z" style="fill:#404041"/><path d="M638.74,154h4.55V139H639.7v-1.45a12.06,12.06,0,0,0,4.12-1.4h1.74V154h4.12v1.89H638.74Z" style="fill:#404041"/><path d="M632,67a72,72,0,1,1-72,72,72,72,0,0,1,72-72m0-2a74,74,0,1,0,74,74,74.09,74.09,0,0,0-74-74Z" style="fill:#404041"/><line x1="355.08" y1="137.76" x2="530.39" y2="137.99" style="fill:none;stroke:#404041;stroke-linecap:round;stroke-miterlimit:10;stroke-width:2px"/><polygon points="528.63 143.97 539 138 528.65 132 528.63 143.97" style="fill:#404041"/><rect x="434.05" y="123.76" width="26.73" height="28" rx="13.36" ry="13.36" style="fill:#fff"/><path d="M456,145a13.39,13.39,0,0,1-6.73,1.67c-3.68,0-7.75-1.45-7.75-5.59,0-2.28,1.86-4.18,4.56-4.6v-.19c-2.43-.53-3.65-2.05-3.65-3.87,0-2.43,2.43-5,7.34-5a9.78,9.78,0,0,1,5.58,1.41l-.72,2.2a10,10,0,0,0-4.6-1.14c-2.55,0-4.26,1.07-4.26,2.74,0,1.82,2.25,2.62,5.13,2.62h2.21v2.39h-2.32c-3.31,0-5.77.91-5.77,3.12s2.27,3.34,5,3.34a12.24,12.24,0,0,0,5.4-1.4Z" style="fill:#404041"/><path d="M248.31,72.17a35,35,0,0,1,69.22,6.06" style="fill:none;stroke:#404041;stroke-linecap:round;stroke-miterlimit:10;stroke-width:2px"/><polygon points="254.63 71.09 247.57 80.75 242.74 69.81 254.63 71.09" style="fill:#404041"/><rect x="259" y="24" width="49" height="41.83" rx="20.92" ry="20.92" style="fill:#fff"/><path d="M264.08,57.41A4.39,4.39,0,0,1,262.72,54a4.55,4.55,0,0,1,2.45-4.13q2.44-1.45,7.82-2a5.77,5.77,0,0,0-.8-3.18,3,3,0,0,0-2.73-1.25,9,9,0,0,0-5,1.81l-1-1.7a11.55,11.55,0,0,1,6.39-2.18,5,5,0,0,1,4.22,1.79A7.89,7.89,0,0,1,275.44,48v10.2h-2l-.2-2h-.11a8.91,8.91,0,0,1-5.54,2.42A5,5,0,0,1,264.08,57.41Zm6.45-1.34A11.11,11.11,0,0,0,273,54.32V49.49a16.39,16.39,0,0,0-6,1.57,3.15,3.15,0,0,0-1.79,2.78,2.56,2.56,0,0,0,.85,2.09,3.3,3.3,0,0,0,2.18.7A5.29,5.29,0,0,0,270.53,56.07Z" style="fill:#404041"/><path d="M283.82,55.48a3.7,3.7,0,0,1,.6,2.24,6.25,6.25,0,0,1-1.14,3.69,7.24,7.24,0,0,1-3.08,2.46l-.65-1.49a5.19,5.19,0,0,0,2.16-1.67,4.22,4.22,0,0,0,.8-2.45.94.94,0,0,1-.34,0,2,2,0,0,1-1.36-.5,1.7,1.7,0,0,1-.54-1.34,1.63,1.63,0,0,1,.58-1.31,2,2,0,0,1,1.36-.49A1.88,1.88,0,0,1,283.82,55.48Z" style="fill:#404041"/><path d="M293.73,58.08a9,9,0,0,1-2.35-1.55h-.1l-.24,1.7h-2V34h2.45v6.74l-.07,3a8.28,8.28,0,0,1,5.31-2.38,5.65,5.65,0,0,1,4.84,2.26,10.1,10.1,0,0,1,1.69,6.14,10.67,10.67,0,0,1-1,4.74,7.6,7.6,0,0,1-2.62,3.1,6.37,6.37,0,0,1-3.54,1.07A6,6,0,0,1,293.73,58.08Zm4.57-2.38a5.53,5.53,0,0,0,1.79-2.37,9.14,9.14,0,0,0,.64-3.57,8.36,8.36,0,0,0-1.1-4.64,3.84,3.84,0,0,0-3.45-1.68q-2.12,0-4.66,2.38v8.91a8.44,8.44,0,0,0,2.19,1.36,5.6,5.6,0,0,0,2,.44A4.26,4.26,0,0,0,298.3,55.7Z" style="fill:#404041"/><path d="M599.31,57.17a35,35,0,0,1,69.22,6.06" style="fill:none;stroke:#404041;stroke-linecap:round;stroke-miterlimit:10;stroke-width:2px"/><polygon points="605.63 56.09 598.57 65.75 593.74 54.8 605.63 56.09" style="fill:#404041"/><rect x="610" y="9" width="49" height="41.83" rx="20.92" ry="20.92" style="fill:#fff"/><path d="M615.08,42.41A4.39,4.39,0,0,1,613.72,39a4.55,4.55,0,0,1,2.45-4.13q2.45-1.45,7.82-2a5.77,5.77,0,0,0-.8-3.18,3,3,0,0,0-2.73-1.25,9,9,0,0,0-5,1.81l-1-1.7a11.55,11.55,0,0,1,6.39-2.18,5,5,0,0,1,4.22,1.79A7.89,7.89,0,0,1,626.44,33v10.2h-2l-.2-2h-.11a8.91,8.91,0,0,1-5.54,2.42A5,5,0,0,1,615.08,42.41Zm6.45-1.34A11.11,11.11,0,0,0,624,39.32V34.49a16.39,16.39,0,0,0-6,1.57,3.15,3.15,0,0,0-1.79,2.78,2.56,2.56,0,0,0,.85,2.09,3.3,3.3,0,0,0,2.18.7A5.29,5.29,0,0,0,621.53,41.07Z" style="fill:#404041"/><path d="M634.82,40.48a3.7,3.7,0,0,1,.6,2.24,6.25,6.25,0,0,1-1.14,3.69,7.24,7.24,0,0,1-3.08,2.46l-.65-1.49a5.19,5.19,0,0,0,2.16-1.67,4.22,4.22,0,0,0,.8-2.45.94.94,0,0,1-.34,0,2,2,0,0,1-1.36-.5,1.7,1.7,0,0,1-.54-1.34,1.63,1.63,0,0,1,.58-1.31,2,2,0,0,1,1.36-.49A1.88,1.88,0,0,1,634.82,40.48Z" style="fill:#404041"/><path d="M644.73,43.08a9,9,0,0,1-2.35-1.55h-.1l-.24,1.7h-2V19h2.45v6.74l-.07,3a8.28,8.28,0,0,1,5.31-2.38,5.65,5.65,0,0,1,4.84,2.26,10.1,10.1,0,0,1,1.69,6.14,10.67,10.67,0,0,1-1,4.74,7.6,7.6,0,0,1-2.62,3.1,6.37,6.37,0,0,1-3.54,1.07A6,6,0,0,1,644.73,43.08Zm4.57-2.38a5.53,5.53,0,0,0,1.79-2.37,9.14,9.14,0,0,0,.64-3.57,8.36,8.36,0,0,0-1.1-4.64,3.84,3.84,0,0,0-3.45-1.68q-2.11,0-4.66,2.38v8.91a8.44,8.44,0,0,0,2.19,1.36,5.6,5.6,0,0,0,2,.44A4.26,4.26,0,0,0,649.3,40.7Z" style="fill:#404041"/></svg>