<svg id="Layer_1" data-name="Layer 1" xmlns="http://www.w3.org/2000/svg" viewBox="0 0 931 530"><title>Automat</title><circle cx="554.14" cy="144.5" r="58.33" style="fill:#fff;stroke:#404041;stroke-miterlimit:10;stroke-width:2px"/><path d="M550.92,150.87l.14-4.14a9.88,9.88,0,0,1-6.9,3.22,8.09,8.09,0,0,1-6.7-3.08q-2.46-3.08-2.46-8.6a13.63,13.63,0,0,1,1.34-6.17A10.19,10.19,0,0,1,539.9,128a8.64,8.64,0,0,1,4.81-1.45,8,8,0,0,1,3.33.67,12.58,12.58,0,0,1,3.06,2h.14l.32-2.12h2.67V159h-3.31Zm-3-4.55a12,12,0,0,0,3-2.39v-12.1a10.48,10.48,0,0,0-2.85-1.86,7.24,7.24,0,0,0-2.86-.58,5.55,5.55,0,0,0-3.42,1.15,7.87,7.87,0,0,0-2.44,3.17,11.11,11.11,0,0,0-.9,4.56,10.94,10.94,0,0,0,1.68,6.48,5.5,5.5,0,0,0,4.76,2.35A6.33,6.33,0,0,0,548,146.32Z" style="fill:#404041"/><path d="M559.38,160.07q3.5-3.54,5.42-5.68a23.83,23.83,0,0,0,3-3.93,6.83,6.83,0,0,0,1-3.38,4.1,4.1,0,0,0-1-2.88,3.72,3.72,0,0,0-2.91-1.09,4.44,4.44,0,0,0-2.28.65,8,8,0,0,0-2,1.77l-1.33-1.3A10.29,10.29,0,0,1,562,142a6.56,6.56,0,0,1,3.2-.78,5.82,5.82,0,0,1,4.28,1.57A5.61,5.61,0,0,1,571,147a7.84,7.84,0,0,1-1,3.68,21.26,21.26,0,0,1-2.65,3.82q-1.65,1.92-4.68,5.11l.74,0c1.16-.08,2-.12,2.57-.12h6v2H559.38Z" style="fill:#404041"/><circle cx="277.25" cy="144.5" r="58.33" style="fill:#fff;stroke:#404041;stroke-miterlimit:10;stroke-width:2px"/><path d="M274.66,150.87l.14-4.14a9.88,9.88,0,0,1-6.9,3.22,8.09,8.09,0,0,1-6.69-3.08q-2.46-3.08-2.46-8.6a13.63,13.63,0,0,1,1.33-6.17,10.27,10.27,0,0,1,3.56-4.11,8.64,8.64,0,0,1,4.81-1.45,8,8,0,0,1,3.34.67,13,13,0,0,1,3.06,2H275l.33-2.12H278V159h-3.31Zm-3-4.55a12.17,12.17,0,0,0,3-2.39v-12.1a10.48,10.48,0,0,0-2.85-1.86,7.23,7.23,0,0,0-2.85-.58,5.58,5.58,0,0,0-3.43,1.15,7.87,7.87,0,0,0-2.44,3.17,11.28,11.28,0,0,0-.89,4.56,10.94,10.94,0,0,0,1.68,6.48,5.48,5.48,0,0,0,4.76,2.35A6.39,6.39,0,0,0,271.7,146.32Z" style="fill:#404041"/><path d="M283.4,159.51H288v-15h-3.6V143a12.12,12.12,0,0,0,4.13-1.4h1.73v17.89h4.13v1.89h-11Z" style="fill:#404041"/><circle cx="554.14" cy="414.5" r="58.33" style="fill:#fff;stroke:#404041;stroke-miterlimit:10;stroke-width:2px"/><path d="M550.92,417.87l.14-4.14a9.88,9.88,0,0,1-6.9,3.22,8.09,8.09,0,0,1-6.7-3.08q-2.46-3.08-2.46-8.6a13.63,13.63,0,0,1,1.34-6.17A10.19,10.19,0,0,1,539.9,395a8.64,8.64,0,0,1,4.81-1.45,8,8,0,0,1,3.33.67,12.58,12.58,0,0,1,3.06,2h.14l.32-2.12h2.67V426h-3.31Zm-3-4.55a12,12,0,0,0,3-2.39v-12.1a10.48,10.48,0,0,0-2.85-1.86,7.24,7.24,0,0,0-2.86-.58,5.55,5.55,0,0,0-3.42,1.15,7.87,7.87,0,0,0-2.44,3.17,11.11,11.11,0,0,0-.9,4.56,10.94,10.94,0,0,0,1.68,6.48,5.5,5.5,0,0,0,4.76,2.35A6.33,6.33,0,0,0,548,413.32Z" style="fill:#404041"/><path d="M561.66,428a10.2,10.2,0,0,1-2.74-1.95l1.14-1.49a9,9,0,0,0,2.25,1.67,6,6,0,0,0,2.84.62,4.38,4.38,0,0,0,2.26-.59,4.15,4.15,0,0,0,1.61-1.66,5,5,0,0,0,.59-2.46,4.54,4.54,0,0,0-1.18-3.32,4.23,4.23,0,0,0-3.16-1.21,5.22,5.22,0,0,0-1.75.28,8.5,8.5,0,0,0-1.72.93l-1.24-.77.65-9.46h9.7v2h-7.72l-.56,6.16a8.47,8.47,0,0,1,1.52-.65,6.11,6.11,0,0,1,1.65-.21,6.26,6.26,0,0,1,4.4,1.56,6,6,0,0,1,1.7,4.64,6.76,6.76,0,0,1-.91,3.56,6.29,6.29,0,0,1-2.42,2.33,6.82,6.82,0,0,1-3.24.8A8.43,8.43,0,0,1,561.66,428Z" style="fill:#404041"/><path d="M554.08,342.5a72,72,0,1,1-72,72,72,72,0,0,1,72-72m0-2a74,74,0,1,0,74,74,74.09,74.09,0,0,0-74-74Z" style="fill:#404041"/><circle cx="73.92" cy="288" r="58.33" style="fill:#fff;fill-opacity:0.5;stroke:#404041;stroke-miterlimit:10;stroke-width:2px"/><path d="M71.69,294.37l.14-4.14a9.88,9.88,0,0,1-6.9,3.22,8.09,8.09,0,0,1-6.69-3.08q-2.46-3.08-2.46-8.6a13.63,13.63,0,0,1,1.33-6.17,10.21,10.21,0,0,1,3.57-4.11,8.61,8.61,0,0,1,4.8-1.45,8,8,0,0,1,3.34.67,13,13,0,0,1,3.06,2H72l.32-2.12H75v31.88H71.69Zm-3-4.55a12.17,12.17,0,0,0,3-2.39v-12.1a10.48,10.48,0,0,0-2.85-1.86,7.23,7.23,0,0,0-2.85-.58A5.58,5.58,0,0,0,62.56,274a8,8,0,0,0-2.44,3.17,11.28,11.28,0,0,0-.89,4.56,10.94,10.94,0,0,0,1.68,6.48,5.49,5.49,0,0,0,4.76,2.35A6.39,6.39,0,0,0,68.73,289.82Z" style="fill:#404041"/><path d="M82,302.58A14.79,14.79,0,0,1,80.31,295q0-4.93,1.64-7.56a5.31,5.31,0,0,1,9.18,0Q92.77,290,92.77,295a14.79,14.79,0,0,1-1.64,7.63,5.26,5.26,0,0,1-9.18,0Zm7.55-1.26A14.75,14.75,0,0,0,90.57,295a14.33,14.33,0,0,0-1.07-6.31,3.16,3.16,0,0,0-5.92,0A14.33,14.33,0,0,0,82.51,295a14.75,14.75,0,0,0,1.07,6.37,3.13,3.13,0,0,0,5.92,0Z" style="fill:#404041"/><line x1="12.92" y1="181.84" x2="30.01" y2="210.1" style="fill:none;stroke:#6fa8a5;stroke-linecap:round;stroke-miterlimit:10;stroke-width:4px"/><polygon points="17.95 213.29 38.92 224.84 38.44 200.91 17.95 213.29" style="fill:#6fa8a5"/><circle cx="277.25" cy="401" r="58.33" style="fill:#fff;stroke:#404041;stroke-miterlimit:10;stroke-width:2px"/><path d="M275,407.37l.14-4.14a9.88,9.88,0,0,1-6.9,3.22,8.09,8.09,0,0,1-6.7-3.08q-2.46-3.08-2.46-8.6a13.5,13.5,0,0,1,1.34-6.17,10.12,10.12,0,0,1,3.56-4.11,8.64,8.64,0,0,1,4.81-1.45,8,8,0,0,1,3.33.67,12.58,12.58,0,0,1,3.06,2h.14l.32-2.12h2.67v31.88H275Zm-3-4.55a12,12,0,0,0,3-2.39v-12.1a10.67,10.67,0,0,0-2.86-1.86,7.23,7.23,0,0,0-2.85-.58A5.53,5.53,0,0,0,265.9,387a7.87,7.87,0,0,0-2.44,3.17,11.11,11.11,0,0,0-.9,4.56,10.94,10.94,0,0,0,1.68,6.48A5.5,5.5,0,0,0,269,403.6,6.39,6.39,0,0,0,272.06,402.82Z" style="fill:#404041"/><path d="M296.6,412.32h-2.76v5.58H291.7v-5.58h-8.92v-1.46l8.64-12.74h2.42v12.4h2.76Zm-4.9-1.8v-6.14c0-.78.05-2,.16-3.72h-.13q-.62,1.13-1,1.65l-.65,1.08-4.93,7.13Z" style="fill:#404041"/><circle cx="836.58" cy="144" r="58.33" style="fill:#fff;stroke:#404041;stroke-miterlimit:10;stroke-width:2px"/><path d="M834.36,150.37l.14-4.14a9.88,9.88,0,0,1-6.9,3.22,8.11,8.11,0,0,1-6.7-3.08q-2.46-3.08-2.46-8.6a13.63,13.63,0,0,1,1.34-6.17,10.27,10.27,0,0,1,3.56-4.11,8.64,8.64,0,0,1,4.81-1.45,8,8,0,0,1,3.33.67,12.58,12.58,0,0,1,3.06,2h.14l.32-2.12h2.67v31.88h-3.31Zm-3-4.55a12,12,0,0,0,3-2.39v-12.1a10.48,10.48,0,0,0-2.85-1.86,7.23,7.23,0,0,0-2.85-.58,5.58,5.58,0,0,0-3.43,1.15,7.87,7.87,0,0,0-2.44,3.17,11.11,11.11,0,0,0-.9,4.56,10.94,10.94,0,0,0,1.68,6.48,5.5,5.5,0,0,0,4.76,2.35A6.33,6.33,0,0,0,831.39,145.82Z" style="fill:#404041"/><path d="M842.42,158.48l1.15-1.49a9,9,0,0,0,2.31,1.76,6.15,6.15,0,0,0,2.86.63,4.43,4.43,0,0,0,3.07-1,3.48,3.48,0,0,0,1.18-2.77q0-4.09-6.48-4.09v-1.77a7.26,7.26,0,0,0,4.4-1.05,3.38,3.38,0,0,0,1.37-2.79,3.07,3.07,0,0,0-1-2.38,3.76,3.76,0,0,0-2.61-.88,5.87,5.87,0,0,0-4.31,2l-1.24-1.46a8.1,8.1,0,0,1,5.61-2.45,6.41,6.41,0,0,1,4.19,1.32,4.9,4.9,0,0,1,.63,6.57,5.94,5.94,0,0,1-2.68,1.81v.13a6,6,0,0,1,3.15,1.76,4.67,4.67,0,0,1,1.22,3.29,5.27,5.27,0,0,1-.85,3,5.48,5.48,0,0,1-2.31,2,7.65,7.65,0,0,1-3.25.68A8.33,8.33,0,0,1,842.42,158.48Z" style="fill:#404041"/><path d="M837,72a72,72,0,1,1-72,72,72,72,0,0,1,72-72m0-2a74,74,0,1,0,74,74,74.09,74.09,0,0,0-74-74Z" style="fill:#404041"/><line x1="353.08" y1="142.76" x2="472.39" y2="142.76" style="fill:none;stroke:#404041;stroke-linecap:round;stroke-miterlimit:10;stroke-width:2px"/><polygon points="470.64 148.74 481 142.76 470.64 136.77 470.64 148.74" style="fill:#404041"/><line x1="353.08" y1="404.76" x2="460.39" y2="404.76" style="fill:none;stroke:#404041;stroke-linecap:round;stroke-miterlimit:10;stroke-width:2px"/><polygon points="458.64 410.74 469 404.76 458.64 398.77 458.64 410.74" style="fill:#404041"/><rect x="398.55" y="129.76" width="26.73" height="28" rx="13.36" ry="13.36" style="fill:#fff"/><path d="M407.56,151.41A4.39,4.39,0,0,1,406.2,148a4.55,4.55,0,0,1,2.45-4.13q2.44-1.46,7.82-2a5.77,5.77,0,0,0-.8-3.18,3,3,0,0,0-2.73-1.25,9,9,0,0,0-5,1.81l-1-1.7a11.55,11.55,0,0,1,6.39-2.18,5,5,0,0,1,4.22,1.79,8,8,0,0,1,1.36,4.91v10.2h-2l-.21-2h-.1a8.91,8.91,0,0,1-5.54,2.42A5,5,0,0,1,407.56,151.41Zm6.45-1.34a11.11,11.11,0,0,0,2.46-1.75v-4.83a16.39,16.39,0,0,0-6,1.57,3.15,3.15,0,0,0-1.79,2.78,2.53,2.53,0,0,0,.85,2.09,3.3,3.3,0,0,0,2.18.7A5.29,5.29,0,0,0,414,150.07Z" style="fill:#404041"/><line x1="626.08" y1="139" x2="740.47" y2="139" style="fill:none;stroke:#404041;stroke-linecap:round;stroke-miterlimit:10;stroke-width:2px"/><polygon points="738.72 144.98 749.08 139 738.72 133.02 738.72 144.98" style="fill:#404041"/><rect x="659.55" y="124.76" width="26.73" height="28" rx="13.36" ry="13.36" style="fill:#fff"/><path d="M668.56,146.41A4.39,4.39,0,0,1,667.2,143a4.55,4.55,0,0,1,2.45-4.13q2.45-1.46,7.82-2a5.77,5.77,0,0,0-.8-3.18,3,3,0,0,0-2.73-1.25,9,9,0,0,0-5,1.81l-1-1.7a11.55,11.55,0,0,1,6.39-2.18,5,5,0,0,1,4.22,1.79,8,8,0,0,1,1.36,4.91v10.2h-2l-.21-2h-.1a8.91,8.91,0,0,1-5.54,2.42A5,5,0,0,1,668.56,146.41Zm6.45-1.34a11.11,11.11,0,0,0,2.46-1.75v-4.83a16.39,16.39,0,0,0-6,1.57,3.15,3.15,0,0,0-1.79,2.78,2.53,2.53,0,0,0,.85,2.09,3.3,3.3,0,0,0,2.18.7A5.29,5.29,0,0,0,675,145.07Z" style="fill:#404041"/><path d="M286.3,324.7c11-20.92,60.88-52.7,135.7-52.7,65,0,118,34,132,61" style="fill:none;stroke:#404041;stroke-linecap:round;stroke-miterlimit:10;stroke-width:2px"/><polygon points="292.82 324.91 284 333 281.4 321.32 292.82 324.91" style="fill:#404041"/><rect x="384.92" y="380" width="45.08" height="41.83" rx="20.92" ry="20.92" style="fill:#fff"/><path d="M388.08,412.41a4.39,4.39,0,0,1-1.36-3.43,4.55,4.55,0,0,1,2.45-4.13q2.44-1.46,7.82-2a5.77,5.77,0,0,0-.8-3.18,3,3,0,0,0-2.73-1.25,9,9,0,0,0-5,1.81l-1-1.7a11.55,11.55,0,0,1,6.39-2.18,5,5,0,0,1,4.22,1.79,7.89,7.89,0,0,1,1.36,4.91v10.2h-2l-.2-2h-.11a8.91,8.91,0,0,1-5.54,2.42A5,5,0,0,1,388.08,412.41Zm6.45-1.34a11.11,11.11,0,0,0,2.46-1.75v-4.83a16.39,16.39,0,0,0-6,1.57,3.15,3.15,0,0,0-1.79,2.78,2.56,2.56,0,0,0,.85,2.09,3.3,3.3,0,0,0,2.18.7A5.29,5.29,0,0,0,394.53,411.07Z" style="fill:#404041"/><path d="M407.82,410.48a3.7,3.7,0,0,1,.6,2.24,6.25,6.25,0,0,1-1.14,3.69,7.24,7.24,0,0,1-3.08,2.46l-.65-1.49a5.19,5.19,0,0,0,2.16-1.67,4.22,4.22,0,0,0,.8-2.45.94.94,0,0,1-.34,0,2,2,0,0,1-1.36-.5,1.7,1.7,0,0,1-.54-1.34,1.63,1.63,0,0,1,.58-1.31,2,2,0,0,1,1.36-.49A1.88,1.88,0,0,1,407.82,410.48Z" style="fill:#404041"/><path d="M417.73,413.08a9,9,0,0,1-2.35-1.55h-.1l-.24,1.7h-2V389h2.45v6.74l-.07,3a8.28,8.28,0,0,1,5.31-2.38,5.65,5.65,0,0,1,4.84,2.26,10.1,10.1,0,0,1,1.69,6.14,10.67,10.67,0,0,1-1,4.74,7.6,7.6,0,0,1-2.62,3.1,6.37,6.37,0,0,1-3.54,1.07A6,6,0,0,1,417.73,413.08Zm4.57-2.38a5.53,5.53,0,0,0,1.79-2.37,9.14,9.14,0,0,0,.64-3.57,8.36,8.36,0,0,0-1.1-4.64,3.84,3.84,0,0,0-3.45-1.68q-2.12,0-4.66,2.38v8.91a8.44,8.44,0,0,0,2.19,1.36,5.6,5.6,0,0,0,2,.44A4.26,4.26,0,0,0,422.3,410.7Z" style="fill:#404041"/><rect x="384.92" y="251" width="45.08" height="41.83" rx="20.92" ry="20.92" style="fill:#fff"/><path d="M388.08,283.41a4.39,4.39,0,0,1-1.36-3.43,4.55,4.55,0,0,1,2.45-4.13q2.44-1.46,7.82-2a5.77,5.77,0,0,0-.8-3.18,3,3,0,0,0-2.73-1.25,9,9,0,0,0-5,1.81l-1-1.7a11.55,11.55,0,0,1,6.39-2.18,5,5,0,0,1,4.22,1.79,7.89,7.89,0,0,1,1.36,4.91v10.2h-2l-.2-2h-.11a8.91,8.91,0,0,1-5.54,2.42A5,5,0,0,1,388.08,283.41Zm6.45-1.34a11.11,11.11,0,0,0,2.46-1.75v-4.83a16.39,16.39,0,0,0-6,1.57,3.15,3.15,0,0,0-1.79,2.78,2.56,2.56,0,0,0,.85,2.09,3.3,3.3,0,0,0,2.18.7A5.29,5.29,0,0,0,394.53,282.07Z" style="fill:#404041"/><path d="M407.82,281.48a3.7,3.7,0,0,1,.6,2.24,6.25,6.25,0,0,1-1.14,3.69,7.24,7.24,0,0,1-3.08,2.46l-.65-1.49a5.19,5.19,0,0,0,2.16-1.67,4.22,4.22,0,0,0,.8-2.45.94.94,0,0,1-.34,0,2,2,0,0,1-1.36-.5,1.7,1.7,0,0,1-.54-1.34,1.63,1.63,0,0,1,.58-1.31,2,2,0,0,1,1.36-.49A1.88,1.88,0,0,1,407.82,281.48Z" style="fill:#404041"/><path d="M417.73,284.08a9,9,0,0,1-2.35-1.55h-.1l-.24,1.7h-2V260h2.45v6.74l-.07,3a8.28,8.28,0,0,1,5.31-2.38,5.65,5.65,0,0,1,4.84,2.26,10.1,10.1,0,0,1,1.69,6.14,10.67,10.67,0,0,1-1,4.74,7.6,7.6,0,0,1-2.62,3.1,6.37,6.37,0,0,1-3.54,1.07A6,6,0,0,1,417.73,284.08Zm4.57-2.38a5.53,5.53,0,0,0,1.79-2.37,9.14,9.14,0,0,0,.64-3.57,8.36,8.36,0,0,0-1.1-4.64,3.84,3.84,0,0,0-3.45-1.68q-2.12,0-4.66,2.38v8.91a8.44,8.44,0,0,0,2.19,1.36,5.6,5.6,0,0,0,2,.44A4.26,4.26,0,0,0,422.3,281.7Z" style="fill:#404041"/><line x1="128" y1="242" x2="207.99" y2="185" style="fill:none;stroke:#404041;stroke-linecap:round;stroke-miterlimit:10;stroke-width:2px"/><polygon points="210.03 190.89 215 180 203.09 181.14 210.03 190.89" style="fill:#404041"/><line x1="124" y1="333" x2="203.99" y2="390" style="fill:none;stroke:#404041;stroke-linecap:round;stroke-miterlimit:10;stroke-width:2px"/><polygon points="199.09 393.86 211 395 206.03 384.11 199.09 393.86" style="fill:#404041"/><rect x="151.05" y="201.76" width="26.73" height="28" rx="13.36" ry="13.36" style="fill:#fff"/><path d="M173,223a13.39,13.39,0,0,1-6.73,1.67c-3.68,0-7.75-1.45-7.75-5.59,0-2.28,1.86-4.18,4.56-4.6v-.19c-2.43-.53-3.65-2.05-3.65-3.87,0-2.43,2.43-5,7.34-5a9.78,9.78,0,0,1,5.58,1.41l-.72,2.2a10,10,0,0,0-4.6-1.14c-2.55,0-4.26,1.07-4.26,2.74,0,1.82,2.25,2.62,5.13,2.62h2.21v2.39h-2.32c-3.31,0-5.77.91-5.77,3.12s2.27,3.34,5,3.34a12.24,12.24,0,0,0,5.4-1.4Z" style="fill:#404041"/><rect x="148.05" y="345.76" width="26.73" height="28" rx="13.36" ry="13.36" style="fill:#fff"/><path d="M170,367a13.39,13.39,0,0,1-6.73,1.67c-3.68,0-7.75-1.45-7.75-5.59,0-2.28,1.86-4.18,4.56-4.6v-.19c-2.43-.53-3.65-2-3.65-3.87,0-2.43,2.43-5,7.34-5a9.78,9.78,0,0,1,5.58,1.41l-.72,2.2a10,10,0,0,0-4.6-1.14c-2.55,0-4.26,1.07-4.26,2.74s2.25,2.62,5.13,2.62h2.21v2.39h-2.32c-3.31,0-5.77.91-5.77,3.12s2.27,3.34,5,3.34a12.24,12.24,0,0,0,5.4-1.4Z" style="fill:#404041"/><path d="M246.31,77.17a35,35,0,0,1,69.22,6.06" style="fill:none;stroke:#404041;stroke-linecap:round;stroke-miterlimit:10;stroke-width:2px"/><polygon points="252.63 76.09 245.57 85.75 240.74 74.81 252.63 76.09" style="fill:#404041"/><rect x="257" y="29" width="49" height="41.83" rx="20.92" ry="20.92" style="fill:#fff"/><path d="M262.08,62.41A4.39,4.39,0,0,1,260.72,59a4.55,4.55,0,0,1,2.45-4.13q2.44-1.45,7.82-2a5.77,5.77,0,0,0-.8-3.18,3,3,0,0,0-2.73-1.25,9,9,0,0,0-5,1.81l-1-1.7a11.55,11.55,0,0,1,6.39-2.18,5,5,0,0,1,4.22,1.79A7.89,7.89,0,0,1,273.44,53v10.2h-2l-.2-2h-.11a8.91,8.91,0,0,1-5.54,2.42A5,5,0,0,1,262.08,62.41Zm6.45-1.34A11.11,11.11,0,0,0,271,59.32V54.49a16.39,16.39,0,0,0-6,1.57,3.15,3.15,0,0,0-1.79,2.78,2.56,2.56,0,0,0,.85,2.09,3.3,3.3,0,0,0,2.18.7A5.29,5.29,0,0,0,268.53,61.07Z" style="fill:#404041"/><path d="M281.82,60.48a3.7,3.7,0,0,1,.6,2.24,6.25,6.25,0,0,1-1.14,3.69,7.24,7.24,0,0,1-3.08,2.46l-.65-1.49a5.19,5.19,0,0,0,2.16-1.67,4.22,4.22,0,0,0,.8-2.45.94.94,0,0,1-.34,0,2,2,0,0,1-1.36-.5,1.7,1.7,0,0,1-.54-1.34,1.63,1.63,0,0,1,.58-1.31,2,2,0,0,1,1.36-.49A1.88,1.88,0,0,1,281.82,60.48Z" style="fill:#404041"/><path d="M291.73,63.08a9,9,0,0,1-2.35-1.55h-.1l-.24,1.7h-2V39h2.45v6.74l-.07,3a8.28,8.28,0,0,1,5.31-2.38,5.65,5.65,0,0,1,4.84,2.26,10.1,10.1,0,0,1,1.69,6.14,10.67,10.67,0,0,1-1,4.74,7.6,7.6,0,0,1-2.62,3.1,6.37,6.37,0,0,1-3.54,1.07A6,6,0,0,1,291.73,63.08Zm4.57-2.38a5.53,5.53,0,0,0,1.79-2.37,9.14,9.14,0,0,0,.64-3.57,8.36,8.36,0,0,0-1.1-4.64,3.84,3.84,0,0,0-3.45-1.68q-2.12,0-4.66,2.38v8.91a8.44,8.44,0,0,0,2.19,1.36,5.6,5.6,0,0,0,2,.44A4.26,4.26,0,0,0,296.3,60.7Z" style="fill:#404041"/><path d="M804.31,62.17a35,35,0,0,1,69.22,6.06" style="fill:none;stroke:#404041;stroke-linecap:round;stroke-miterlimit:10;stroke-width:2px"/><polygon points="810.63 61.09 803.57 70.75 798.74 59.8 810.63 61.09" style="fill:#404041"/><rect x="815" y="14" width="49" height="41.83" rx="20.92" ry="20.92" style="fill:#fff"/><path d="M820.08,47.41A4.39,4.39,0,0,1,818.72,44a4.55,4.55,0,0,1,2.45-4.13q2.45-1.45,7.82-2a5.77,5.77,0,0,0-.8-3.18,3,3,0,0,0-2.73-1.25,9,9,0,0,0-5,1.81l-1-1.7a11.55,11.55,0,0,1,6.39-2.18,5,5,0,0,1,4.22,1.79A7.89,7.89,0,0,1,831.44,38v10.2h-2l-.2-2h-.11a8.91,8.91,0,0,1-5.54,2.42A5,5,0,0,1,820.08,47.41Zm6.45-1.34A11.11,11.11,0,0,0,829,44.32V39.49a16.39,16.39,0,0,0-6,1.57,3.15,3.15,0,0,0-1.79,2.78,2.56,2.56,0,0,0,.85,2.09,3.3,3.3,0,0,0,2.18.7A5.29,5.29,0,0,0,826.53,46.07Z" style="fill:#404041"/><path d="M839.82,45.48a3.7,3.7,0,0,1,.6,2.24,6.25,6.25,0,0,1-1.14,3.69,7.24,7.24,0,0,1-3.08,2.46l-.65-1.49a5.19,5.19,0,0,0,2.16-1.67,4.22,4.22,0,0,0,.8-2.45.94.94,0,0,1-.34,0,2,2,0,0,1-1.36-.5,1.7,1.7,0,0,1-.54-1.34,1.63,1.63,0,0,1,.58-1.31,2,2,0,0,1,1.36-.49A1.88,1.88,0,0,1,839.82,45.48Z" style="fill:#404041"/><path d="M849.73,48.08a9,9,0,0,1-2.35-1.55h-.1l-.24,1.7h-2V24h2.45v6.74l-.07,3a8.28,8.28,0,0,1,5.31-2.38,5.65,5.65,0,0,1,4.84,2.26,10.1,10.1,0,0,1,1.69,6.14,10.67,10.67,0,0,1-1,4.74,7.6,7.6,0,0,1-2.62,3.1,6.37,6.37,0,0,1-3.54,1.07A6,6,0,0,1,849.73,48.08Zm4.57-2.38a5.53,5.53,0,0,0,1.79-2.37,9.14,9.14,0,0,0,.64-3.57,8.36,8.36,0,0,0-1.1-4.64,3.84,3.84,0,0,0-3.45-1.68q-2.11,0-4.66,2.38v8.91a8.44,8.44,0,0,0,2.19,1.36,5.6,5.6,0,0,0,2,.44A4.26,4.26,0,0,0,854.3,45.7Z" style="fill:#404041"/></svg>