<svg id="Layer_1" data-name="Layer 1" xmlns="http://www.w3.org/2000/svg" viewBox="0 0 931 233"><title>Automat</title><circle cx="301.58" cy="146" r="58.33" style="fill:#fff;stroke:#404041;stroke-miterlimit:10;stroke-width:2px"/><path d="M299.36,152.37l.14-4.14a9.88,9.88,0,0,1-6.9,3.22,8.11,8.11,0,0,1-6.7-3.08q-2.46-3.08-2.46-8.6a13.63,13.63,0,0,1,1.34-6.17,10.27,10.27,0,0,1,3.56-4.11,8.64,8.64,0,0,1,4.81-1.45,8,8,0,0,1,3.33.67,12.58,12.58,0,0,1,3.06,2h.14l.32-2.12h2.67v31.88h-3.31Zm-3-4.55a12,12,0,0,0,3-2.39v-12.1a10.48,10.48,0,0,0-2.85-1.86,7.23,7.23,0,0,0-2.85-.58,5.58,5.58,0,0,0-3.43,1.15,7.87,7.87,0,0,0-2.44,3.17,11.11,11.11,0,0,0-.9,4.56,10.94,10.94,0,0,0,1.68,6.48,5.5,5.5,0,0,0,4.76,2.35A6.33,6.33,0,0,0,296.39,147.82Z" style="fill:#404041"/><path d="M309.62,160.58c-1.1-1.8-1.64-4.34-1.64-7.63s.54-5.81,1.64-7.56a5.3,5.3,0,0,1,9.17,0q1.65,2.63,1.65,7.56t-1.65,7.63a5.25,5.25,0,0,1-9.17,0Zm7.55-1.26a14.75,14.75,0,0,0,1.07-6.37,14.33,14.33,0,0,0-1.07-6.31,3.16,3.16,0,0,0-5.92,0,14.19,14.19,0,0,0-1.07,6.31,14.6,14.6,0,0,0,1.07,6.37,3.13,3.13,0,0,0,5.92,0Z" style="fill:#404041"/><path d="M302,74a72,72,0,1,1-72,72,72,72,0,0,1,72-72m0-2a74,74,0,1,0,74,74,74.09,74.09,0,0,0-74-74Z" style="fill:#404041"/><circle cx="654.92" cy="147" r="58.33" style="fill:#fff;fill-opacity:0.5;stroke:#404041;stroke-miterlimit:10;stroke-width:2px"/><path d="M653.33,153.37l.14-4.14a9.88,9.88,0,0,1-6.9,3.22,8.07,8.07,0,0,1-6.69-3.08q-2.48-3.08-2.47-8.6a13.63,13.63,0,0,1,1.34-6.17,10.19,10.19,0,0,1,3.56-4.11,8.64,8.64,0,0,1,4.81-1.45,8,8,0,0,1,3.34.67,12.73,12.73,0,0,1,3,2h.14l.32-2.12h2.67v31.88h-3.31Zm-3-4.55a12,12,0,0,0,3-2.39v-12.1a10.48,10.48,0,0,0-2.85-1.86,7.24,7.24,0,0,0-2.86-.58A5.57,5.57,0,0,0,644.2,133a7.87,7.87,0,0,0-2.44,3.17,11.11,11.11,0,0,0-.9,4.56,10.94,10.94,0,0,0,1.68,6.48,5.5,5.5,0,0,0,4.76,2.35A6.33,6.33,0,0,0,650.36,148.82Z" style="fill:#404041"/><path d="M662.07,162h4.56V147H663v-1.45a12,12,0,0,0,4.12-1.4h1.74V162H673v1.89H662.07Z" style="fill:#404041"/><line x1="204.92" y1="52.84" x2="222.01" y2="81.1" style="fill:none;stroke:#6fa8a5;stroke-linecap:round;stroke-miterlimit:10;stroke-width:4px"/><polygon points="209.95 84.29 230.92 95.83 230.44 71.91 209.95 84.29" style="fill:#6fa8a5"/><line x1="391.08" y1="144.76" x2="566.39" y2="144.99" style="fill:none;stroke:#404041;stroke-linecap:round;stroke-miterlimit:10;stroke-width:2px"/><polygon points="564.63 150.97 575 145 564.65 139 564.63 150.97" style="fill:#404041"/><rect x="470.05" y="130.76" width="26.73" height="28" rx="13.36" ry="13.36" style="fill:#fff"/><path d="M492,152a13.39,13.39,0,0,1-6.73,1.67c-3.68,0-7.75-1.45-7.75-5.59,0-2.28,1.86-4.18,4.56-4.6v-.19c-2.43-.53-3.65-2.05-3.65-3.87,0-2.43,2.43-5,7.34-5a9.78,9.78,0,0,1,5.58,1.41l-.72,2.2a10,10,0,0,0-4.6-1.14c-2.55,0-4.26,1.07-4.26,2.74,0,1.82,2.25,2.62,5.13,2.62h2.21v2.39h-2.32c-3.31,0-5.77.91-5.77,3.12s2.27,3.34,5,3.34a12.24,12.24,0,0,0,5.4-1.4Z" style="fill:#404041"/><path d="M271.31,60.17a35,35,0,0,1,69.22,6.06" style="fill:none;stroke:#404041;stroke-linecap:round;stroke-miterlimit:10;stroke-width:2px"/><polygon points="277.63 59.09 270.57 68.75 265.74 57.8 277.63 59.09" style="fill:#404041"/><rect x="282" y="12" width="49" height="41.83" rx="20.92" ry="20.92" style="fill:#fff"/><path d="M287.08,45.41A4.39,4.39,0,0,1,285.72,42a4.55,4.55,0,0,1,2.45-4.13q2.44-1.45,7.82-2a5.77,5.77,0,0,0-.8-3.18,3,3,0,0,0-2.73-1.25,9,9,0,0,0-5,1.81l-1-1.7a11.55,11.55,0,0,1,6.39-2.18,5,5,0,0,1,4.22,1.79A7.89,7.89,0,0,1,298.44,36v10.2h-2l-.2-2h-.11a8.91,8.91,0,0,1-5.54,2.42A5,5,0,0,1,287.08,45.41Zm6.45-1.34A11.11,11.11,0,0,0,296,42.32V37.49a16.39,16.39,0,0,0-6,1.57,3.15,3.15,0,0,0-1.79,2.78,2.56,2.56,0,0,0,.85,2.09,3.3,3.3,0,0,0,2.18.7A5.29,5.29,0,0,0,293.53,44.07Z" style="fill:#404041"/><path d="M306.82,43.48a3.7,3.7,0,0,1,.6,2.24,6.25,6.25,0,0,1-1.14,3.69,7.24,7.24,0,0,1-3.08,2.46l-.65-1.49a5.19,5.19,0,0,0,2.16-1.67,4.22,4.22,0,0,0,.8-2.45.94.94,0,0,1-.34,0,2,2,0,0,1-1.36-.5,1.7,1.7,0,0,1-.54-1.34,1.63,1.63,0,0,1,.58-1.31,2,2,0,0,1,1.36-.49A1.88,1.88,0,0,1,306.82,43.48Z" style="fill:#404041"/><path d="M316.73,46.08a9,9,0,0,1-2.35-1.55h-.1l-.24,1.7h-2V22h2.45v6.74l-.07,3a8.28,8.28,0,0,1,5.31-2.38,5.65,5.65,0,0,1,4.84,2.26,10.1,10.1,0,0,1,1.69,6.14,10.67,10.67,0,0,1-1,4.74,7.6,7.6,0,0,1-2.62,3.1,6.37,6.37,0,0,1-3.54,1.07A6,6,0,0,1,316.73,46.08Zm4.57-2.38a5.53,5.53,0,0,0,1.79-2.37,9.14,9.14,0,0,0,.64-3.57,8.36,8.36,0,0,0-1.1-4.64,3.84,3.84,0,0,0-3.45-1.68q-2.12,0-4.66,2.38v8.91a8.44,8.44,0,0,0,2.19,1.36,5.6,5.6,0,0,0,2,.44A4.26,4.26,0,0,0,321.3,43.7Z" style="fill:#404041"/><path d="M622.31,79.17a35,35,0,0,1,69.22,6.06" style="fill:none;stroke:#404041;stroke-linecap:round;stroke-miterlimit:10;stroke-width:2px"/><polygon points="628.63 78.09 621.57 87.75 616.74 76.81 628.63 78.09" style="fill:#404041"/><rect x="633" y="31" width="49" height="41.83" rx="20.92" ry="20.92" style="fill:#fff"/><path d="M638.08,64.41A4.39,4.39,0,0,1,636.72,61a4.55,4.55,0,0,1,2.45-4.13q2.45-1.45,7.82-2a5.77,5.77,0,0,0-.8-3.18,3,3,0,0,0-2.73-1.25,9,9,0,0,0-5,1.81l-1-1.7a11.55,11.55,0,0,1,6.39-2.18,5,5,0,0,1,4.22,1.79A7.89,7.89,0,0,1,649.44,55v10.2h-2l-.2-2h-.11a8.91,8.91,0,0,1-5.54,2.42A5,5,0,0,1,638.08,64.41Zm6.45-1.34A11.11,11.11,0,0,0,647,61.32V56.49a16.39,16.39,0,0,0-6,1.57,3.15,3.15,0,0,0-1.79,2.78,2.56,2.56,0,0,0,.85,2.09,3.3,3.3,0,0,0,2.18.7A5.29,5.29,0,0,0,644.53,63.07Z" style="fill:#404041"/><path d="M657.82,62.48a3.7,3.7,0,0,1,.6,2.24,6.25,6.25,0,0,1-1.14,3.69,7.24,7.24,0,0,1-3.08,2.46l-.65-1.49a5.19,5.19,0,0,0,2.16-1.67,4.22,4.22,0,0,0,.8-2.45.94.94,0,0,1-.34,0,2,2,0,0,1-1.36-.5,1.7,1.7,0,0,1-.54-1.34,1.63,1.63,0,0,1,.58-1.31,2,2,0,0,1,1.36-.49A1.88,1.88,0,0,1,657.82,62.48Z" style="fill:#404041"/><path d="M667.73,65.08a9,9,0,0,1-2.35-1.55h-.1l-.24,1.7h-2V41h2.45v6.74l-.07,3a8.28,8.28,0,0,1,5.31-2.38,5.65,5.65,0,0,1,4.84,2.26,10.1,10.1,0,0,1,1.69,6.14,10.67,10.67,0,0,1-1,4.74,7.6,7.6,0,0,1-2.62,3.1,6.37,6.37,0,0,1-3.54,1.07A6,6,0,0,1,667.73,65.08Zm4.57-2.38a5.53,5.53,0,0,0,1.79-2.37,9.14,9.14,0,0,0,.64-3.57,8.36,8.36,0,0,0-1.1-4.64,3.84,3.84,0,0,0-3.45-1.68q-2.11,0-4.66,2.38v8.91a8.44,8.44,0,0,0,2.19,1.36,5.6,5.6,0,0,0,2,.44A4.26,4.26,0,0,0,672.3,62.7Z" style="fill:#404041"/></svg>