<svg width="234" height="155" viewBox="0 0 234 155" fill="none" xmlns="http://www.w3.org/2000/svg">
<g clip-path="url(#clip0_5716_46663)">
<path d="M0 0H234V145C234 150.523 229.523 155 224 155H10C4.47715 155 0 150.523 0 145V0Z" fill="#FCFCFC"/>
<g opacity="0.3">
<ellipse cx="50.5162" cy="129.148" rx="9.51619" ry="8.14824" fill="#91C653"/>
<path d="M57.3125 243.826C55.627 242.87 53.7372 242.207 51.7512 241.874C49.7653 241.542 47.7222 241.547 45.7388 241.888C43.7554 242.23 41.8706 242.902 40.1924 243.866C38.5142 244.83 37.0755 246.067 35.9585 247.505C35.1996 248.482 34.2223 249.321 33.0828 249.975C31.9433 250.629 30.6637 251.085 29.3172 251.317C27.9707 251.549 26.5837 251.553 25.2354 251.327C23.887 251.102 22.6039 250.652 21.4591 250.004L18.7776 248.4C17.633 247.752 16.649 246.919 15.882 245.948C15.1149 244.976 14.5799 243.885 14.3073 242.737C14.0348 241.59 14.0302 240.407 14.2937 239.258C14.5573 238.109 15.0838 237.016 15.8433 236.04L116.05 107.188C117.676 105.106 120.204 103.658 123.08 103.163C125.955 102.667 128.945 103.164 131.393 104.544C133.841 105.93 135.544 108.089 136.127 110.545C136.71 113.001 136.126 115.553 134.502 117.641L108.065 151.681C107.588 152.292 107.257 152.976 107.092 153.696C106.926 154.416 106.929 155.157 107.099 155.876C107.27 156.596 107.606 157.279 108.087 157.888C108.568 158.496 109.185 159.018 109.903 159.423C110.619 159.829 111.422 160.112 112.266 160.253C113.11 160.395 113.979 160.393 114.822 160.248C115.665 160.103 116.466 159.817 117.179 159.407C117.893 158.997 118.504 158.471 118.978 157.859L218.288 30.0994C218.982 29.2068 219.875 28.4397 220.916 27.8418C221.957 27.2439 223.127 26.827 224.357 26.6149C225.588 26.4029 226.855 26.3998 228.088 26.6059C229.32 26.812 230.493 27.2232 231.539 27.816C232.586 28.4085 233.486 29.1712 234.188 30.0604C234.89 30.9496 235.379 31.948 235.629 32.9985C235.878 34.049 235.883 35.131 235.642 36.1827C235.401 37.2343 234.919 38.2351 234.224 39.1278L132.048 170.5C130.145 172.96 129.462 175.963 130.148 178.852C130.834 181.742 132.834 184.283 135.709 185.919C138.585 187.556 140.585 190.096 141.271 192.986C141.957 195.876 141.274 198.879 139.37 201.339L52.6484 312.841C51.733 314.02 50.5539 315.033 49.1786 315.823C47.8033 316.613 46.2588 317.163 44.6335 317.444C43.0081 317.724 41.3338 317.728 39.7063 317.455C38.0788 317.183 36.5301 316.639 35.1488 315.856C32.3651 314.276 30.4291 311.819 29.7655 309.024C29.1019 306.229 29.7649 303.324 31.609 300.947L61.6883 261.975C63.9237 259.073 64.7184 255.533 63.8981 252.131C63.0778 248.729 60.7096 245.742 57.3125 243.826Z" fill="#F15859"/>
<path d="M99.5644 5.705L51.158 66.8089C50.341 67.8294 49.7676 68.9788 49.4711 70.1905C49.1746 71.4022 49.1608 72.6523 49.4305 73.8684C49.7003 75.0846 50.2483 76.2428 51.0427 77.2759C51.8371 78.309 52.8623 79.1966 54.059 79.8874C55.2476 80.5884 56.5865 81.0802 57.9981 81.3343C59.4097 81.5883 60.866 81.5997 62.283 81.3677C63.6999 81.1357 65.0494 80.665 66.2533 79.9827C67.4572 79.3005 68.4917 78.4201 69.297 77.3927L117.703 16.2889C118.529 15.2456 119.102 14.0701 119.387 12.8327C119.671 11.5953 119.663 10.3214 119.361 9.08718C119.059 7.85296 118.47 6.68372 117.63 5.64945C116.789 4.61518 115.714 3.73714 114.469 3.06771C112.073 1.75859 109.178 1.30175 106.395 1.79406C103.613 2.28636 101.163 3.68908 99.5644 5.705Z" fill="#FDCC09"/>
</g>
</g>
<defs>
<clipPath id="clip0_5716_46663">
<path d="M0 0H234V145C234 150.523 229.523 155 224 155H10C4.47715 155 0 150.523 0 145V0Z" fill="white"/>
</clipPath>
</defs>
</svg>
