<svg width="7" height="4" viewBox="0 0 7 4" fill="none" xmlns="http://www.w3.org/2000/svg">
<path d="M3.5 4C3.54597 4.00005 3.5915 3.99067 3.63396 3.97239C3.67643 3.9541 3.715 3.92728 3.74745 3.89345L6.89752 0.620727C6.94646 0.569872 6.97978 0.505085 6.99328 0.434557C7.00678 0.364029 6.99985 0.290926 6.97336 0.224489C6.94688 0.158053 6.90203 0.101266 6.84448 0.0613084C6.78694 0.0213505 6.71928 1.53543e-05 6.65007 0L0.349933 0C0.280719 1.53543e-05 0.213063 0.0213505 0.155519 0.0613084C0.0979738 0.101266 0.0531235 0.158053 0.0266385 0.224489C0.000153542 0.290926 -0.00677729 0.364029 0.0067215 0.434557C0.0202203 0.505085 0.0535426 0.569872 0.102477 0.620727L3.25254 3.89345C3.285 3.92728 3.32357 3.9541 3.36604 3.97239C3.4085 3.99067 3.45403 4.00005 3.5 4Z" fill="#323333"/>
</svg>
