<svg width="28" height="28" viewBox="0 0 28 28" fill="none" xmlns="http://www.w3.org/2000/svg">
<path d="M13.9994 3.5C12.1554 3.49977 10.3438 3.98516 8.74699 4.90735C7.15015 5.82953 5.82432 7.15598 4.9029 8.75326C3.98147 10.3505 3.49694 12.1623 3.49805 14.0063C3.49916 15.8503 3.98586 17.6615 4.9092 19.2577L3.5453 23.3472C3.49388 23.5014 3.48642 23.6668 3.52375 23.825C3.56108 23.9832 3.64172 24.1278 3.75664 24.2427C3.87156 24.3576 4.01621 24.4383 4.17438 24.4756C4.33256 24.5129 4.498 24.5055 4.65217 24.4541L8.7417 23.0902C10.1362 23.8964 11.6974 24.3709 13.3046 24.4771C14.9119 24.5834 16.522 24.3184 18.0104 23.7027C19.4989 23.0871 20.8257 22.1372 21.8883 20.9267C22.9509 19.7162 23.7207 18.2774 24.1382 16.7217C24.5557 15.166 24.6097 13.5351 24.2961 11.9552C23.9824 10.3753 23.3094 8.88878 22.3293 7.61059C21.3491 6.3324 20.088 5.29685 18.6436 4.58406C17.1992 3.87127 15.6101 3.50035 13.9994 3.5ZM16.6244 20.125C14.3037 20.125 12.0781 19.2031 10.4372 17.5622C8.79623 15.9212 7.87436 13.6956 7.87436 11.375C7.87436 10.4467 8.24311 9.5565 8.89949 8.90013C9.55586 8.24375 10.4461 7.875 11.3744 7.875L13.1244 11.375L11.7769 13.3952C12.3114 14.6724 13.327 15.688 14.6042 16.2225L16.6244 14.875L20.1244 16.625C20.1244 17.5533 19.7556 18.4435 19.0992 19.0999C18.4429 19.7563 17.5526 20.125 16.6244 20.125Z" fill="#70C6D1"/>
<path d="M20.5171 15.8419L17.0171 14.0919C16.8793 14.0232 16.7259 13.9921 16.5722 14.0017C16.4186 14.0113 16.2702 14.0613 16.1421 14.1466L14.5354 15.2184C13.7978 14.813 13.1908 14.206 12.7854 13.4684L13.8572 11.8617C13.9425 11.7336 13.9925 11.5852 14.0021 11.4316C14.0117 11.2779 13.9806 11.1245 13.9119 10.9867L12.1619 7.48672C12.0894 7.34023 11.9773 7.217 11.8383 7.13097C11.6993 7.04495 11.539 6.99958 11.3755 7C10.2152 7 9.10241 7.46094 8.28194 8.28141C7.46147 9.10188 7.00053 10.2147 7.00053 11.375C7.00343 13.9268 8.01841 16.3733 9.82282 18.1777C11.6272 19.9821 14.0737 20.9971 16.6255 21C17.2001 21 17.769 20.8868 18.2998 20.667C18.8306 20.4471 19.3129 20.1248 19.7191 19.7186C20.1254 19.3123 20.4476 18.83 20.6675 18.2992C20.8874 17.7684 21.0005 17.1995 21.0005 16.625C21.0006 16.4624 20.9555 16.3031 20.8701 16.1647C20.7847 16.0264 20.6625 15.9146 20.5171 15.8419ZM16.6255 19.25C14.5377 19.2477 12.536 18.4173 11.0596 16.9409C9.58327 15.4646 8.75285 13.4629 8.75053 11.375C8.75036 10.7681 8.96049 10.1799 9.34516 9.71047C9.72983 9.24105 10.2653 8.91942 10.8604 8.80031L12.116 11.3159L11.0474 12.9062C10.9676 13.026 10.9185 13.1637 10.9046 13.3069C10.8906 13.4502 10.9123 13.5947 10.9676 13.7277C11.5936 15.2156 12.7773 16.3993 14.2652 17.0253C14.3985 17.0831 14.5441 17.1067 14.6889 17.0941C14.8336 17.0815 14.9729 17.033 15.0943 16.9531L16.6933 15.8878L19.209 17.1434C19.0889 17.7394 18.7657 18.2752 18.2945 18.6594C17.8234 19.0436 17.2335 19.2523 16.6255 19.25ZM14.0005 2.625C12.0367 2.62457 10.1061 3.1326 8.39687 4.09963C6.68759 5.06665 5.2578 6.45974 4.24666 8.1433C3.23551 9.82685 2.67746 11.7435 2.62683 13.7067C2.5762 15.6699 3.0347 17.6128 3.95772 19.3463L2.71631 23.0705C2.61348 23.3788 2.59856 23.7097 2.67321 24.026C2.74787 24.3424 2.90916 24.6317 3.13899 24.8615C3.36883 25.0914 3.65813 25.2527 3.97448 25.3273C4.29083 25.402 4.62172 25.387 4.93006 25.2842L8.65428 24.0428C10.1798 24.8542 11.8701 25.3074 13.597 25.368C15.3238 25.4286 17.0417 25.095 18.6204 24.3925C20.199 23.69 21.5969 22.6372 22.7079 21.3138C23.8189 19.9904 24.6138 18.4313 25.0322 16.7549C25.4507 15.0784 25.4818 13.3287 25.123 11.6384C24.7643 9.94817 24.0252 8.36187 22.9619 6.99991C21.8985 5.63795 20.5389 4.53613 18.9862 3.77809C17.4334 3.02005 15.7284 2.62571 14.0005 2.625ZM14.0005 23.625C12.3085 23.6262 10.6461 23.1806 9.18147 22.3333C9.07423 22.2711 8.95501 22.2324 8.83169 22.2198C8.70837 22.2071 8.58377 22.2208 8.46616 22.26L4.37553 23.625L5.73944 19.5344C5.77875 19.4168 5.79265 19.2923 5.7802 19.169C5.76776 19.0456 5.72926 18.9264 5.66725 18.8191C4.60628 16.9847 4.1803 14.8516 4.45541 12.7505C4.73051 10.6493 5.6913 8.69774 7.18875 7.1984C8.6862 5.69906 10.6366 4.7358 12.7374 4.45804C14.8381 4.18029 16.9718 4.60357 18.8075 5.66222C20.6431 6.72087 22.0781 8.35571 22.8898 10.3131C23.7015 12.2706 23.8446 14.4411 23.2968 16.4882C22.749 18.5352 21.541 20.3442 19.8601 21.6346C18.1793 22.925 16.1196 23.6247 14.0005 23.625Z" fill="#323333"/>
</svg>
