<svg width="28" height="28" viewBox="0 0 28 28" fill="none" xmlns="http://www.w3.org/2000/svg">
<path d="M22.75 3.5V21H7.875C7.17881 21 6.51113 21.2766 6.01884 21.7688C5.52656 22.2611 5.25 22.9288 5.25 23.625V6.125C5.25 5.42881 5.52656 4.76113 6.01884 4.26884C6.51113 3.77656 7.17881 3.5 7.875 3.5H12.25V14L15.75 11.375L19.25 14V3.5H22.75Z" fill="#70C6D1"/>
<path d="M22.75 2.625H7.875C6.94674 2.625 6.0565 2.99375 5.40013 3.65013C4.74375 4.3065 4.375 5.19674 4.375 6.125V24.5C4.375 24.7321 4.46719 24.9546 4.63128 25.1187C4.79538 25.2828 5.01794 25.375 5.25 25.375H21C21.2321 25.375 21.4546 25.2828 21.6187 25.1187C21.7828 24.9546 21.875 24.7321 21.875 24.5C21.875 24.2679 21.7828 24.0454 21.6187 23.8813C21.4546 23.7172 21.2321 23.625 21 23.625H6.125C6.125 23.1609 6.30937 22.7158 6.63756 22.3876C6.96575 22.0594 7.41087 21.875 7.875 21.875H22.75C22.9821 21.875 23.2046 21.7828 23.3687 21.6187C23.5328 21.4546 23.625 21.2321 23.625 21V3.5C23.625 3.26794 23.5328 3.04538 23.3687 2.88128C23.2046 2.71719 22.9821 2.625 22.75 2.625ZM13.125 4.375H18.375V12.25L16.2739 10.675C16.1224 10.5614 15.9382 10.5 15.7489 10.5C15.5596 10.5 15.3754 10.5614 15.2239 10.675L13.125 12.25V4.375ZM21.875 20.125H7.875C7.26047 20.1242 6.65668 20.2861 6.125 20.5942V6.125C6.125 5.66087 6.30937 5.21575 6.63756 4.88756C6.96575 4.55937 7.41087 4.375 7.875 4.375H11.375V14C11.375 14.1625 11.4203 14.3218 11.5057 14.46C11.5911 14.5982 11.7133 14.71 11.8587 14.7826C12.004 14.8553 12.1667 14.8861 12.3286 14.8715C12.4904 14.8569 12.645 14.7975 12.775 14.7L15.75 12.4688L18.7261 14.7C18.8773 14.8134 19.0611 14.8748 19.25 14.875C19.3858 14.8748 19.5198 14.8434 19.6416 14.7831C19.7869 14.7104 19.9092 14.5986 19.9946 14.4603C20.0799 14.3219 20.1251 14.1626 20.125 14V4.375H21.875V20.125Z" fill="#323333"/>
</svg>
