<svg id="Layer_1" data-name="Layer 1" xmlns="http://www.w3.org/2000/svg" viewBox="0 0 32.31 34.09"><title>headerExpertIcon</title><path d="M.16,16.28a16,16,0,0,0,16,16c7.19,0,11.89-5.28,12.27-5.73a15.81,15.81,0,0,0,3.73-10.27c-.22-7.33-6.39-16-16-16A16,16,0,0,0,.16,16.28Z" style="fill:#6fa8a5"/><polygon points="26.39 27.35 28.29 33.78 19.61 31.86 26.39 27.35" style="fill:#6fa8a5"/><polyline points="7.6 23.11 10.35 17.16 12.44 18.2 14.09 19.03" style="fill:none;stroke:#fff;stroke-linecap:round;stroke-miterlimit:10;stroke-width:0.5px"/><polyline points="25.83 23.11 22.92 19.03 21.16 20.13 16.66 11.94 12.44 18.2" style="fill:none;stroke:#fff;stroke-linecap:round;stroke-miterlimit:10;stroke-width:0.5px"/><line x1="6.65" y1="23.11" x2="26.59" y2="23.11" style="fill:none;stroke:#fff;stroke-linecap:round;stroke-miterlimit:10;stroke-width:0.5px"/><polyline points="16.67 12.3 16.67 7.04 20.3 7.04 19.48 8.08 20.3 9.09 16.67 9.07" style="fill:none;stroke:#fff;stroke-linecap:round;stroke-linejoin:round;stroke-width:0.5px"/></svg>