<svg id="Layer_1" data-name="Layer 1" xmlns="http://www.w3.org/2000/svg" viewBox="0 0 32.31 34.09"><title>headerLectureIcon</title><path d="M32.11,16.28a16,16,0,0,1-16,16C8.92,32.28,4.22,27,3.84,26.55A15.81,15.81,0,0,1,.11,16.28C.32,9,6.49.28,16.11.28A16,16,0,0,1,32.11,16.28Z" style="fill:#95caca"/><polygon points="5.88 27.35 3.98 33.78 12.65 31.86 5.88 27.35" style="fill:#95caca"/><path d="M19.68,8.7a3,3,0,0,0-3.93,1.41l-4.63,9.82,1.41,3.93,3.93-1.41,4.63-9.82A3,3,0,0,0,19.68,8.7ZM11.79,20.21a2.35,2.35,0,0,1,1.83,1l.09.13h.15a2.31,2.31,0,0,1,2,.75l-1.33.48-2.22-1.05Zm2.18.6a2.89,2.89,0,0,0-2.14-1.14L15,13l4.37,2.07-3.13,6.65A2.89,2.89,0,0,0,14,20.81Zm6.52-8.16-.92,1.94L15.2,12.53l.92-1.94Zm-1-3.46a2.41,2.41,0,0,1,1.24,3l-4.32-2A2.42,2.42,0,0,1,19.45,9.19ZM12.52,22.25l1.26.59-.93.34Z" style="fill:#fff"/></svg>